<svg width="348" height="330" viewBox="0 0 348 330" fill="none" xmlns="http://www.w3.org/2000/svg">
<path d="M319.856 157.506C319.943 159.463 319.991 161.43 319.999 163.407L319.402 163.409C319.402 163.606 319.403 163.803 319.403 164C319.403 164.197 319.402 164.394 319.402 164.591L319.999 164.593C319.991 166.57 319.943 168.537 319.856 170.494L319.259 170.467C319.252 170.629 319.244 170.79 319.237 170.951C319.226 171.181 319.214 171.41 319.202 171.638L319.799 171.67C319.695 173.644 319.551 175.607 319.368 177.559L318.773 177.503C318.737 177.892 318.699 178.28 318.659 178.668L319.253 178.729C319.053 180.695 318.813 182.649 318.534 184.591L317.943 184.506C317.887 184.893 317.83 185.279 317.771 185.665L318.362 185.754C318.065 187.707 317.729 189.647 317.354 191.573L316.768 191.459C316.693 191.842 316.617 192.225 316.539 192.608L317.124 192.727C316.731 194.661 316.299 196.582 315.829 198.487L315.25 198.344C315.156 198.724 315.061 199.103 314.964 199.481L315.543 199.629C315.055 201.541 314.528 203.437 313.964 205.318L313.392 205.146C313.279 205.521 313.165 205.895 313.05 206.268L313.621 206.444C313.038 208.329 312.418 210.196 311.761 212.047L311.198 211.847C311.067 212.216 310.935 212.584 310.801 212.951L311.362 213.156C310.687 215.008 309.975 216.843 309.227 218.659L308.675 218.431C308.526 218.793 308.375 219.154 308.223 219.514L308.774 219.746C308.008 221.562 307.206 223.359 306.368 225.136L305.828 224.882C305.661 225.236 305.493 225.589 305.323 225.942L305.861 226.201C305.007 227.976 304.117 229.731 303.193 231.465L302.666 231.184C302.481 231.529 302.296 231.874 302.109 232.218L302.634 232.503C301.693 234.233 300.717 235.942 299.708 237.629L299.196 237.323C298.995 237.659 298.793 237.994 298.589 238.328L299.099 238.639C298.074 240.32 297.016 241.979 295.925 243.614L295.428 243.283C295.211 243.609 294.992 243.934 294.772 244.258L295.267 244.593C294.161 246.222 293.022 247.827 291.852 249.407L291.373 249.052C291.139 249.366 290.905 249.68 290.67 249.993L291.147 250.352C289.963 251.924 288.747 253.472 287.501 254.993L287.039 254.615C286.791 254.918 286.541 255.22 286.291 255.521L286.75 255.903C285.49 257.415 284.201 258.901 282.882 260.36L282.439 259.959C282.176 260.25 281.912 260.539 281.647 260.828L282.087 261.232C280.755 262.68 279.395 264.101 278.006 265.494L277.583 265.073C277.306 265.35 277.029 265.627 276.75 265.902L277.169 266.327C275.769 267.708 274.341 269.062 272.885 270.385L272.484 269.944C272.194 270.207 271.903 270.47 271.611 270.731L272.009 271.176C270.544 272.487 269.051 273.769 267.532 275.021L267.153 274.56C266.85 274.809 266.547 275.057 266.243 275.304L266.619 275.768C265.091 277.006 263.538 278.214 261.96 279.39L261.603 278.911C261.289 279.145 260.974 279.378 260.658 279.609L261.011 280.091C259.425 281.253 257.815 282.384 256.181 283.482L255.848 282.986C255.523 283.204 255.197 283.421 254.87 283.637L255.199 284.135C253.559 285.218 251.895 286.269 250.208 287.286L249.9 286.774C249.565 286.976 249.229 287.177 248.892 287.377L249.196 287.891C247.505 288.892 245.792 289.859 244.057 290.793L243.774 290.267C243.429 290.452 243.084 290.636 242.738 290.819L243.017 291.347C241.279 292.264 239.52 293.147 237.741 293.994L237.484 293.455C237.131 293.623 236.777 293.79 236.422 293.955L236.675 294.497C234.894 295.327 233.094 296.122 231.275 296.881L231.045 296.33C230.685 296.481 230.323 296.63 229.961 296.778L230.186 297.331C228.367 298.072 226.53 298.778 224.676 299.447L224.473 298.885C224.105 299.017 223.737 299.149 223.368 299.278L223.566 299.842C221.713 300.493 219.844 301.107 217.957 301.684L217.783 301.113C217.409 301.227 217.035 301.34 216.66 301.451L216.83 302.024C214.948 302.583 213.05 303.104 211.137 303.588L210.991 303.009C210.612 303.104 210.233 303.199 209.853 303.291L209.994 303.872C208.088 304.337 206.166 304.764 204.231 305.154L204.113 304.568C203.731 304.645 203.347 304.721 202.963 304.794L203.076 305.381C201.15 305.752 199.209 306.085 197.256 306.379L197.167 305.788C196.782 305.846 196.395 305.903 196.008 305.958L196.092 306.549C194.15 306.825 192.196 307.063 190.229 307.261L190.169 306.667C189.782 306.706 189.393 306.744 189.004 306.78L189.059 307.374C187.107 307.555 185.144 307.698 183.17 307.801L183.139 307.204C182.749 307.225 182.359 307.243 181.968 307.261L181.994 307.857C180.037 307.943 178.07 307.991 176.093 307.999L176.091 307.402C175.894 307.402 175.697 307.403 175.5 307.403C175.303 307.403 175.106 307.402 174.909 307.402L174.907 307.999C172.93 307.991 170.963 307.943 169.006 307.857L169.032 307.261C168.641 307.243 168.251 307.225 167.861 307.204L167.83 307.801C165.856 307.698 163.893 307.555 161.941 307.374L161.996 306.78C161.607 306.744 161.219 306.706 160.831 306.667L160.771 307.261C158.804 307.063 156.85 306.825 154.908 306.549L154.992 305.958C154.605 305.903 154.219 305.846 153.833 305.788L153.744 306.379C151.791 306.085 149.85 305.752 147.924 305.381L148.037 304.794C147.653 304.721 147.269 304.645 146.887 304.568L146.769 305.154C144.834 304.764 142.912 304.337 141.006 303.872L141.147 303.291C140.767 303.199 140.388 303.104 140.009 303.009L139.863 303.588C137.95 303.104 136.052 302.583 134.17 302.024L134.34 301.451C133.965 301.34 133.591 301.227 133.217 301.113L133.043 301.684C131.157 301.107 129.287 300.493 127.434 299.842L127.632 299.278C127.263 299.149 126.895 299.017 126.527 298.885L126.324 299.447C124.47 298.778 122.633 298.072 120.814 297.331L121.04 296.778C120.677 296.63 120.316 296.481 119.955 296.33L119.725 296.881C117.906 296.122 116.106 295.327 114.325 294.497L114.578 293.955C114.223 293.79 113.869 293.623 113.516 293.455L113.259 293.994C111.48 293.147 109.721 292.264 107.984 291.347L108.262 290.819C107.916 290.636 107.571 290.452 107.226 290.267L106.943 290.793C105.208 289.859 103.495 288.892 101.804 287.891L102.108 287.377C101.771 287.177 101.435 286.977 101.1 286.774L100.792 287.286C99.1053 286.269 97.4415 285.218 95.801 284.135L96.13 283.637C95.8033 283.421 95.4774 283.204 95.1525 282.986L94.8195 283.482C93.1852 282.384 91.5747 281.253 89.9889 280.091L90.3418 279.609C90.0259 279.378 89.7111 279.145 89.3971 278.911L89.0403 279.39C87.462 278.214 85.9086 277.006 84.3811 275.768L84.7571 275.304C84.4528 275.057 84.1496 274.809 83.8474 274.56L83.4676 275.021C81.9489 273.769 80.4563 272.487 78.9908 271.176L79.389 270.731C79.0971 270.47 78.8062 270.207 78.5164 269.944L78.1146 270.386C76.6591 269.062 75.2309 267.708 73.8308 266.327L74.2503 265.902C73.9714 265.627 73.6936 265.35 73.417 265.073L72.9941 265.495C71.6052 264.101 70.2446 262.68 68.9134 261.232L69.3531 260.828C69.088 260.539 68.824 260.25 68.5612 259.959L68.1183 260.36C66.7992 258.901 65.5096 257.415 64.2505 255.903L64.7093 255.521C64.4587 255.22 64.2092 254.918 63.961 254.615L63.499 254.993C62.2529 253.472 61.0374 251.924 59.8535 250.352L60.3305 249.993C60.0949 249.68 59.8606 249.366 59.6275 249.052L59.1475 249.407C57.9776 247.827 56.8393 246.222 55.7335 244.593L56.2276 244.258C56.0076 243.934 55.789 243.609 55.5717 243.283L55.0749 243.615C53.984 241.979 52.9258 240.32 51.9011 238.639L52.411 238.328C52.2074 237.994 52.0051 237.659 51.8041 237.323L51.2916 237.629C50.2826 235.942 49.3072 234.233 48.3664 232.503L48.891 232.218C48.7041 231.874 48.5186 231.53 48.3344 231.184L47.8075 231.465C46.883 229.731 45.9931 227.976 45.1386 226.201L45.6767 225.942C45.5071 225.589 45.3388 225.236 45.172 224.882L44.6318 225.136C43.7943 223.359 42.9923 221.562 42.2265 219.746L42.7767 219.514C42.6248 219.154 42.4743 218.793 42.3252 218.431L41.7731 218.659C41.0248 216.843 40.3128 215.008 39.6378 213.156L40.1988 212.951C40.065 212.584 39.9326 212.216 39.8017 211.847L39.239 212.047C38.5819 210.197 37.9618 208.329 37.3794 206.444L37.9499 206.268C37.8345 205.895 37.7206 205.521 37.6082 205.146L37.0363 205.318C36.4721 203.437 35.9454 201.541 35.4572 199.629L36.0357 199.481C35.9391 199.103 35.8439 198.724 35.7503 198.344L35.1705 198.487C34.7005 196.582 34.2686 194.661 33.8756 192.727L34.4609 192.608C34.3831 192.225 34.3069 191.842 34.2323 191.459L33.6461 191.573C33.2713 189.647 32.9351 187.707 32.6382 185.754L33.2285 185.665C33.1699 185.279 33.1128 184.893 33.0572 184.506L32.4661 184.591C32.1871 182.649 31.947 180.695 31.7466 178.729L32.3407 178.668C32.3011 178.28 32.2632 177.892 32.2267 177.503L31.6322 177.559C31.4492 175.607 31.3054 173.644 31.2015 171.67L31.7978 171.638C31.7773 171.249 31.7583 170.858 31.7409 170.468L31.1443 170.494C31.0572 168.537 31.0092 166.57 31.0012 164.593L31.5984 164.591C31.5976 164.394 31.5972 164.197 31.5972 164C31.5972 163.803 31.5976 163.606 31.5984 163.409L31.0012 163.407C31.0092 161.43 31.0572 159.463 31.1443 157.506L31.7409 157.533C31.7583 157.142 31.7773 156.752 31.7978 156.362L31.2015 156.33C31.3054 154.356 31.4492 152.393 31.6322 150.441L32.2267 150.497C32.2631 150.108 32.3011 149.72 32.3407 149.332L31.7466 149.271C31.947 147.305 32.1871 145.351 32.4661 143.409L33.0572 143.494C33.1128 143.108 33.1699 142.721 33.2285 142.336L32.6382 142.246C32.9351 140.293 33.2713 138.353 33.6461 136.427L34.2323 136.541C34.3069 136.158 34.3831 135.775 34.4608 135.392L33.8756 135.273C34.2686 133.339 34.7005 131.418 35.1705 129.513L35.7503 129.656C35.8439 129.276 35.9391 128.897 36.0357 128.519L35.4571 128.371C35.9454 126.459 36.4721 124.563 37.0363 122.682L37.6082 122.854C37.7206 122.479 37.8345 122.105 37.9499 121.732L37.3794 121.556C37.9618 119.671 38.5819 117.804 39.239 115.953L39.8017 116.153C39.9326 115.784 40.065 115.416 40.1988 115.049L39.6378 114.845C40.3128 112.992 41.0248 111.158 41.7731 109.341L42.3252 109.569C42.4743 109.207 42.6248 108.846 42.7767 108.486L42.2265 108.254C42.9923 106.438 43.7943 104.641 44.6318 102.864L45.172 103.118C45.3388 102.764 45.507 102.411 45.6767 102.058L45.1386 101.799C45.9931 100.024 46.883 98.2691 47.8075 96.535L48.3344 96.816C48.5186 96.4706 48.7041 96.126 48.891 95.7822L48.3664 95.497C49.3072 93.7666 50.2826 92.0576 51.2916 90.3708L51.8041 90.6774C52.0051 90.3414 52.2074 90.0063 52.411 89.6721L51.9011 89.3614C52.9258 87.6799 53.984 86.021 55.0749 84.3855L55.5717 84.7169C55.789 84.3911 56.0076 84.0663 56.2275 83.7424L55.7335 83.407C56.8392 81.7783 57.9776 80.1734 59.1475 78.5931L59.6275 78.9485C59.8605 78.6336 60.0949 78.3198 60.3305 78.007L59.8535 77.6477C61.0374 76.0756 62.2529 74.5284 63.499 73.0071L63.9609 73.3855C64.2092 73.0824 64.4586 72.7803 64.7093 72.4793L64.2504 72.0972C65.5096 70.5852 66.7992 69.0993 68.1183 67.6404L68.5612 68.0409C68.824 67.7503 69.0879 67.4607 69.353 67.1723L68.9134 66.7682C70.2446 65.3198 71.6051 63.8986 72.9941 62.5055L73.417 62.9272C73.6936 62.6497 73.9713 62.3734 74.2502 62.0982L73.8308 61.6732C75.2308 60.2916 76.6591 58.9385 78.1146 57.6145L78.5164 58.0563C78.8062 57.7927 79.097 57.5303 79.389 57.269L78.9908 56.824C80.4563 55.5126 81.9488 54.2306 83.4675 52.979L83.8473 53.4398C84.1495 53.1907 84.4528 52.9429 84.7571 52.6962L84.381 52.2323C85.9085 50.9941 87.4619 49.7864 89.0402 48.61L89.3971 49.0888C89.711 48.8549 90.0259 48.6222 90.3418 48.3907L89.9888 47.909C91.5747 46.747 93.1852 45.6165 94.8194 44.5184L95.1525 45.0141C95.4774 44.7958 95.8032 44.5788 96.13 44.3631L95.801 43.8647C97.4414 42.7818 99.1053 41.7313 100.792 40.7143L101.1 41.2257C101.435 41.0236 101.771 40.8228 102.108 40.6233L101.804 40.1095C103.495 39.1083 105.208 38.1406 106.943 37.2071L107.226 37.733C107.571 37.5476 107.916 37.3636 108.262 37.1809L107.983 36.6527C109.721 35.7359 111.48 34.8533 113.259 34.0059L113.516 34.545C113.869 34.3768 114.223 34.21 114.578 34.0446L114.325 33.5034C116.106 32.6731 117.906 31.878 119.725 31.1189L119.955 31.67C120.315 31.5194 120.677 31.3702 121.039 31.2225L120.814 30.6695C122.633 29.928 124.47 29.2224 126.324 28.5535L126.527 29.1152C126.895 28.9826 127.263 28.8514 127.632 28.7217L127.434 28.1583C129.287 27.5074 131.156 26.8931 133.043 26.3162L133.217 26.8872C133.591 26.7729 133.965 26.6601 134.34 26.5487L134.17 25.9763C136.052 25.4175 137.95 24.8959 139.863 24.4124L140.009 24.9913C140.388 24.8956 140.767 24.8014 141.147 24.7086L141.006 24.1285C142.912 23.6632 144.834 23.2356 146.769 22.8465L146.887 23.4319C147.269 23.355 147.653 23.2795 148.037 23.2056L147.924 22.6192C149.85 22.2482 151.791 21.9153 153.744 21.6214L153.833 22.2119C154.218 22.1539 154.605 22.0973 154.992 22.0423L154.908 21.4511C156.85 21.175 158.804 20.9373 160.771 20.7389L160.831 21.3331C161.218 21.2939 161.607 21.2563 161.996 21.2203L161.941 20.6257C163.893 20.4446 165.856 20.3022 167.83 20.1994L167.861 20.7957C168.251 20.7754 168.641 20.7566 169.032 20.7394L169.006 20.1428C170.963 20.0566 172.93 20.0091 174.907 20.0012L174.909 20.5983C175.106 20.5976 175.303 20.5972 175.5 20.5972C175.697 20.5972 175.894 20.5976 176.091 20.5983L176.093 20.0012C178.07 20.0091 180.037 20.0566 181.994 20.1428L181.968 20.7394C182.359 20.7566 182.749 20.7754 183.139 20.7957L183.17 20.1994C185.144 20.3022 187.107 20.4446 189.059 20.6256L189.004 21.2203C189.393 21.2563 189.781 21.2939 190.169 21.3331L190.229 20.7389C192.196 20.9373 194.15 21.175 196.092 21.4511L196.008 22.0423C196.395 22.0973 196.781 22.1539 197.167 22.2119L197.256 21.6214C199.209 21.9153 201.15 22.2482 203.076 22.6192L202.963 23.2056C203.347 23.2795 203.731 23.3549 204.113 23.4319L204.231 22.8464C206.166 23.2355 208.088 23.6632 209.994 24.1285L209.853 24.7086C210.233 24.8014 210.612 24.8956 210.991 24.9913L211.137 24.4124C213.05 24.8959 214.948 25.4175 216.83 25.9762L216.66 26.5487C217.035 26.66 217.409 26.7729 217.783 26.8872L217.957 26.3161C219.843 26.8931 221.713 27.5074 223.566 28.1583L223.368 28.7217C223.737 28.8514 224.105 28.9826 224.473 29.1152L224.676 28.5535C226.53 29.2223 228.367 29.928 230.186 30.6695L229.96 31.2224C230.323 31.3702 230.684 31.5194 231.045 31.67L231.275 31.1189C233.094 31.878 234.894 32.6731 236.675 33.5034L236.422 34.0446C236.777 34.21 237.131 34.3768 237.484 34.545L237.741 34.0059C239.52 34.8533 241.279 35.7359 243.016 36.6527L242.738 37.1809C243.084 37.3635 243.429 37.5476 243.774 37.733L244.057 37.2071C245.792 38.1405 247.505 39.1083 249.196 40.1094L248.892 40.6233C249.229 40.8227 249.565 41.0235 249.9 41.2256L250.208 40.7142C251.895 41.7313 253.559 42.7818 255.199 43.8647L254.87 44.363C255.197 44.5788 255.523 44.7958 255.847 45.0141L256.18 44.5184C257.815 45.6165 259.425 46.747 261.011 47.909L260.658 48.3907C260.974 48.6221 261.289 48.8548 261.603 49.0888L261.96 48.61C263.538 49.7863 265.091 50.9941 266.619 52.2323L266.243 52.6962C266.547 52.9428 266.85 53.1907 267.153 53.4398L267.532 52.979C269.051 54.2306 270.544 55.5126 272.009 56.824L271.611 57.269C271.903 57.5302 272.194 57.7927 272.484 58.0562L272.885 57.6145C274.341 58.9384 275.769 60.2916 277.169 61.6731L276.75 62.0982C277.029 62.3734 277.306 62.6497 277.583 62.9271L278.006 62.5055C279.395 63.8985 280.755 65.3197 282.087 66.7682L281.647 67.1723C281.912 67.4607 282.176 67.7502 282.439 68.0409L282.882 67.6404C284.201 69.0992 285.49 70.5852 286.75 72.0972L286.291 72.4793C286.541 72.7803 286.791 73.0824 287.039 73.3854L287.501 73.0071C288.747 74.5284 289.963 76.0756 291.147 77.6477L290.669 78.0069C290.905 78.3198 291.139 78.6336 291.373 78.9484L291.852 78.5931C293.022 80.1733 294.161 81.7782 295.267 83.4069L294.772 83.7423C294.992 84.0662 295.211 84.3911 295.428 84.7169L295.925 84.3855C297.016 86.0209 298.074 87.6799 299.099 89.3614L298.589 89.6721C298.793 90.0063 298.995 90.3414 299.196 90.6774L299.708 90.3708C300.717 92.0575 301.693 93.7666 302.634 95.497L302.109 95.7822C302.296 96.1259 302.481 96.4705 302.666 96.8159L303.193 96.535C304.117 98.269 305.007 100.024 305.861 101.799L305.323 102.058C305.493 102.411 305.661 102.764 305.828 103.118L306.368 102.864C307.206 104.641 308.008 106.438 308.774 108.254L308.223 108.486C308.375 108.846 308.526 109.207 308.675 109.569L309.227 109.341C309.975 111.157 310.687 112.992 311.362 114.844L310.801 115.049C310.935 115.416 311.067 115.784 311.198 116.153L311.761 115.953C312.418 117.804 313.038 119.671 313.621 121.556L313.05 121.732C313.165 122.105 313.279 122.479 313.392 122.854L313.964 122.682C314.528 124.563 315.055 126.459 315.543 128.371L314.964 128.519C315.061 128.897 315.156 129.276 315.25 129.656L315.829 129.513C316.299 131.418 316.731 133.339 317.124 135.273L316.539 135.392C316.617 135.775 316.693 136.158 316.768 136.541L317.354 136.427C317.729 138.353 318.065 140.293 318.362 142.246L317.771 142.335C317.83 142.721 317.887 143.107 317.943 143.494L318.534 143.409C318.813 145.351 319.053 147.305 319.253 149.271L318.659 149.332C318.699 149.72 318.737 150.108 318.773 150.497L319.368 150.441C319.551 152.393 319.695 154.356 319.799 156.33L319.202 156.362C319.223 156.751 319.242 157.142 319.259 157.533L319.856 157.506Z" stroke="black" stroke-opacity="0.3" stroke-width="1.19432" stroke-dasharray="1.19 5.97"/>
<path d="M318.366 187.439C319.285 187.805 319.733 188.848 319.367 189.767C319.001 190.686 317.959 191.134 317.04 190.767C316.121 190.401 315.672 189.359 316.039 188.44C316.405 187.521 317.447 187.073 318.366 187.439Z" stroke="black" stroke-width="1.19432"/>
<path d="M32.754 187.785C33.6629 187.394 34.7166 187.814 35.1075 188.723C35.4983 189.632 35.0783 190.686 34.1694 191.077C33.2605 191.468 32.2068 191.048 31.8159 190.139C31.4251 189.23 31.8451 188.176 32.754 187.785Z" stroke="black" stroke-width="1.19432"/>
<path d="M317.366 134.439C318.285 134.805 318.733 135.848 318.367 136.767C318.001 137.686 316.959 138.134 316.04 137.767C315.121 137.401 314.672 136.359 315.039 135.44C315.405 134.521 316.447 134.073 317.366 134.439Z" stroke="black" stroke-width="1.19432"/>
<path d="M32.754 134.785C33.6629 134.394 34.7166 134.814 35.1075 135.723C35.4983 136.632 35.0783 137.686 34.1694 138.077C33.2605 138.468 32.2068 138.048 31.8159 137.139C31.4251 136.23 31.8451 135.176 32.754 134.785Z" stroke="black" stroke-width="1.19432"/>
<path d="M104.439 290.44C104.805 289.521 105.847 289.073 106.766 289.439C107.685 289.805 108.134 290.847 107.767 291.767C107.401 292.686 106.359 293.134 105.44 292.767C104.521 292.401 104.073 291.359 104.439 290.44Z" stroke="black" stroke-width="1.19432"/>

<path d="M104.439 37.4399C104.805 36.5209 105.847 36.0728 106.766 36.4391C107.685 36.8054 108.134 37.8475 107.767 38.7666C107.401 39.6857 106.359 40.1337 105.44 39.7674C104.521 39.4011 104.073 38.359 104.439 37.4399Z" stroke="black" stroke-width="1.19432"/>

<path d="M51.0887 237.134C51.7755 236.422 52.9096 236.401 53.6218 237.088C54.334 237.775 54.3546 238.909 53.6677 239.621C52.9809 240.333 51.8468 240.354 51.1346 239.667C50.4224 238.98 50.4019 237.846 51.0887 237.134Z" stroke="black" stroke-width="1.19432"/>
<path d="M299.377 237.208C300.089 237.895 300.11 239.029 299.423 239.741C298.736 240.453 297.602 240.474 296.89 239.787C296.178 239.1 296.157 237.966 296.844 237.254C297.531 236.542 298.665 236.521 299.377 237.208Z" stroke="black" stroke-width="1.19432"/>
<path d="M52.0887 83.134C52.7755 82.4218 53.9096 82.4013 54.6218 83.0881C55.334 83.7749 55.3546 84.909 54.6677 85.6212C53.9809 86.3334 52.8468 86.354 52.1346 85.6672C51.4224 84.9803 51.4019 83.8462 52.0887 83.134Z" stroke="black" stroke-width="1.19432"/>
<path d="M299.377 83.2081C300.089 83.8949 300.11 85.029 299.423 85.7412C298.736 86.4534 297.602 86.474 296.89 85.7871C296.178 85.1003 296.157 83.9662 296.844 83.254C297.531 82.5418 298.665 82.5212 299.377 83.2081Z" stroke="black" stroke-width="1.19432"/>
<path d="M175.899 307.533C175.916 308.522 175.129 309.339 174.14 309.357C173.151 309.375 172.334 308.587 172.316 307.598C172.298 306.609 173.086 305.792 174.075 305.774C175.064 305.757 175.881 306.544 175.899 307.533Z" stroke="black" stroke-width="1.19432"/>
<path d="M175.101 20.3137C175.084 19.3245 175.871 18.508 176.86 18.4901C177.849 18.4721 178.666 19.2595 178.684 20.2488C178.702 21.238 177.914 22.0545 176.925 22.0725C175.936 22.0904 175.119 21.303 175.101 20.3137Z" stroke="black" stroke-width="1.19432"/>
<path d="M258.957 42V35.532L257.78 36.434V35.114L258.957 34.168H260.123V42H258.957ZM265.836 36.544C265.836 36.896 265.807 37.2297 265.748 37.545C265.697 37.853 265.62 38.1353 265.517 38.392L264.142 42H262.932L264.219 38.832C264.153 38.8833 264.076 38.92 263.988 38.942C263.907 38.9567 263.827 38.964 263.746 38.964C263.533 38.964 263.339 38.9273 263.163 38.854C262.987 38.7733 262.833 38.6487 262.701 38.48C262.628 38.392 262.565 38.2967 262.514 38.194C262.47 38.084 262.43 37.9557 262.393 37.809C262.364 37.6623 262.342 37.4863 262.327 37.281C262.312 37.0757 262.305 36.83 262.305 36.544C262.305 36.28 262.312 36.0563 262.327 35.873C262.342 35.6823 262.364 35.5173 262.393 35.378C262.43 35.2387 262.47 35.1177 262.514 35.015C262.565 34.905 262.624 34.8023 262.69 34.707C262.844 34.487 263.042 34.3293 263.284 34.234C263.533 34.1313 263.797 34.08 264.076 34.08C264.391 34.08 264.663 34.135 264.89 34.245C265.125 34.355 265.312 34.509 265.451 34.707C265.524 34.817 265.587 34.9307 265.638 35.048C265.689 35.1653 265.73 35.2973 265.759 35.444C265.788 35.5833 265.807 35.7447 265.814 35.928C265.829 36.104 265.836 36.3093 265.836 36.544ZM264.67 36.566C264.67 36.258 264.659 36.0013 264.637 35.796C264.622 35.5833 264.575 35.4257 264.494 35.323C264.391 35.191 264.252 35.125 264.076 35.125C263.995 35.125 263.915 35.1433 263.834 35.18C263.761 35.2093 263.698 35.257 263.647 35.323C263.566 35.4257 263.515 35.5833 263.493 35.796C263.478 36.0013 263.471 36.258 263.471 36.566C263.471 36.874 263.478 37.1343 263.493 37.347C263.515 37.5523 263.566 37.7063 263.647 37.809C263.698 37.875 263.761 37.9263 263.834 37.963C263.915 37.9923 263.995 38.007 264.076 38.007C264.252 38.007 264.391 37.941 264.494 37.809C264.575 37.7063 264.622 37.5523 264.637 37.347C264.659 37.1343 264.67 36.874 264.67 36.566ZM268.678 42H267.512L269.569 35.213H268.205V36.258H267.083V34.168H270.735V35.136L268.678 42ZM275.183 40.779V42H274.017V40.779H271.839V39.734L273.852 34.168H274.985L273.038 39.734H274.017V38.337H275.183V39.734H275.722V40.779H275.183Z" fill="black"/>
<path d="M168.957 11V4.532L167.78 5.434V4.114L168.957 3.168H170.123V11H168.957ZM175.836 5.544C175.836 5.896 175.807 6.22967 175.748 6.545C175.697 6.853 175.62 7.13533 175.517 7.392L174.142 11H172.932L174.219 7.832C174.153 7.88333 174.076 7.92 173.988 7.942C173.907 7.95667 173.827 7.964 173.746 7.964C173.533 7.964 173.339 7.92733 173.163 7.854C172.987 7.77333 172.833 7.64867 172.701 7.48C172.628 7.392 172.565 7.29667 172.514 7.194C172.47 7.084 172.43 6.95567 172.393 6.809C172.364 6.66233 172.342 6.48633 172.327 6.281C172.312 6.07567 172.305 5.83 172.305 5.544C172.305 5.28 172.312 5.05633 172.327 4.873C172.342 4.68233 172.364 4.51733 172.393 4.378C172.43 4.23867 172.47 4.11767 172.514 4.015C172.565 3.905 172.624 3.80233 172.69 3.707C172.844 3.487 173.042 3.32933 173.284 3.234C173.533 3.13133 173.797 3.08 174.076 3.08C174.391 3.08 174.663 3.135 174.89 3.245C175.125 3.355 175.312 3.509 175.451 3.707C175.524 3.817 175.587 3.93067 175.638 4.048C175.689 4.16533 175.73 4.29733 175.759 4.444C175.788 4.58333 175.807 4.74467 175.814 4.928C175.829 5.104 175.836 5.30933 175.836 5.544ZM174.67 5.566C174.67 5.258 174.659 5.00133 174.637 4.796C174.622 4.58333 174.575 4.42567 174.494 4.323C174.391 4.191 174.252 4.125 174.076 4.125C173.995 4.125 173.915 4.14333 173.834 4.18C173.761 4.20933 173.698 4.257 173.647 4.323C173.566 4.42567 173.515 4.58333 173.493 4.796C173.478 5.00133 173.471 5.258 173.471 5.566C173.471 5.874 173.478 6.13433 173.493 6.347C173.515 6.55233 173.566 6.70633 173.647 6.809C173.698 6.875 173.761 6.92633 173.834 6.963C173.915 6.99233 173.995 7.007 174.076 7.007C174.252 7.007 174.391 6.941 174.494 6.809C174.575 6.70633 174.622 6.55233 174.637 6.347C174.659 6.13433 174.67 5.874 174.67 5.566ZM178.678 11H177.512L179.569 4.213H178.205V5.258H177.083V3.168H180.735V4.136L178.678 11ZM185.524 9.328C185.524 9.64333 185.48 9.90367 185.392 10.109C185.304 10.307 185.183 10.4793 185.029 10.626C184.875 10.7727 184.688 10.8863 184.468 10.967C184.255 11.0477 184.028 11.088 183.786 11.088C183.544 11.088 183.313 11.0477 183.093 10.967C182.873 10.8863 182.686 10.7727 182.532 10.626C182.378 10.4793 182.257 10.307 182.169 10.109C182.081 9.90367 182.037 9.64333 182.037 9.328V4.84C182.037 4.52467 182.081 4.268 182.169 4.07C182.257 3.86467 182.378 3.68867 182.532 3.542C182.686 3.39533 182.873 3.28167 183.093 3.201C183.313 3.12033 183.544 3.08 183.786 3.08C184.028 3.08 184.255 3.12033 184.468 3.201C184.688 3.28167 184.875 3.39533 185.029 3.542C185.183 3.68867 185.304 3.86467 185.392 4.07C185.48 4.268 185.524 4.52467 185.524 4.84V9.328ZM184.358 4.796C184.358 4.56867 184.303 4.4 184.193 4.29C184.083 4.18 183.947 4.125 183.786 4.125C183.625 4.125 183.485 4.18 183.368 4.29C183.258 4.4 183.203 4.56867 183.203 4.796V9.372C183.203 9.59933 183.258 9.768 183.368 9.878C183.485 9.988 183.625 10.043 183.786 10.043C183.947 10.043 184.083 9.988 184.193 9.878C184.303 9.768 184.358 9.59933 184.358 9.372V4.796Z" fill="black"/>
<path d="M310.957 89V82.532L309.78 83.434V82.114L310.957 81.168H312.123V89H310.957ZM317.836 83.544C317.836 83.896 317.807 84.2297 317.748 84.545C317.697 84.853 317.62 85.1353 317.517 85.392L316.142 89H314.932L316.219 85.832C316.153 85.8833 316.076 85.92 315.988 85.942C315.907 85.9567 315.827 85.964 315.746 85.964C315.533 85.964 315.339 85.9273 315.163 85.854C314.987 85.7733 314.833 85.6487 314.701 85.48C314.628 85.392 314.565 85.2967 314.514 85.194C314.47 85.084 314.43 84.9557 314.393 84.809C314.364 84.6623 314.342 84.4863 314.327 84.281C314.312 84.0757 314.305 83.83 314.305 83.544C314.305 83.28 314.312 83.0563 314.327 82.873C314.342 82.6823 314.364 82.5173 314.393 82.378C314.43 82.2387 314.47 82.1177 314.514 82.015C314.565 81.905 314.624 81.8023 314.69 81.707C314.844 81.487 315.042 81.3293 315.284 81.234C315.533 81.1313 315.797 81.08 316.076 81.08C316.391 81.08 316.663 81.135 316.89 81.245C317.125 81.355 317.312 81.509 317.451 81.707C317.524 81.817 317.587 81.9307 317.638 82.048C317.689 82.1653 317.73 82.2973 317.759 82.444C317.788 82.5833 317.807 82.7447 317.814 82.928C317.829 83.104 317.836 83.3093 317.836 83.544ZM316.67 83.566C316.67 83.258 316.659 83.0013 316.637 82.796C316.622 82.5833 316.575 82.4257 316.494 82.323C316.391 82.191 316.252 82.125 316.076 82.125C315.995 82.125 315.915 82.1433 315.834 82.18C315.761 82.2093 315.698 82.257 315.647 82.323C315.566 82.4257 315.515 82.5833 315.493 82.796C315.478 83.0013 315.471 83.258 315.471 83.566C315.471 83.874 315.478 84.1343 315.493 84.347C315.515 84.5523 315.566 84.7063 315.647 84.809C315.698 84.875 315.761 84.9263 315.834 84.963C315.915 84.9923 315.995 85.007 316.076 85.007C316.252 85.007 316.391 84.941 316.494 84.809C316.575 84.7063 316.622 84.5523 316.637 84.347C316.659 84.1343 316.67 83.874 316.67 83.566ZM320.678 89H319.512L321.569 82.213H320.205V83.258H319.083V81.168H322.735V82.136L320.678 89ZM327.546 86.789C327.546 87.0017 327.539 87.196 327.524 87.372C327.517 87.548 327.495 87.7093 327.458 87.856C327.421 88.0027 327.37 88.1383 327.304 88.263C327.238 88.3877 327.146 88.5087 327.029 88.626C326.882 88.7727 326.695 88.8863 326.468 88.967C326.248 89.0477 326.021 89.088 325.786 89.088C325.544 89.088 325.313 89.0477 325.093 88.967C324.873 88.8863 324.686 88.7727 324.532 88.626C324.415 88.5087 324.323 88.3877 324.257 88.263C324.191 88.1383 324.14 88.0027 324.103 87.856C324.066 87.7093 324.041 87.548 324.026 87.372C324.019 87.196 324.015 87.0017 324.015 86.789C324.015 86.459 324.03 86.1877 324.059 85.975C324.088 85.7623 324.151 85.5717 324.246 85.403C324.305 85.3003 324.371 85.2123 324.444 85.139C324.517 85.0583 324.605 84.9813 324.708 84.908C324.517 84.7613 324.374 84.6 324.279 84.424C324.198 84.2553 324.143 84.0757 324.114 83.885C324.085 83.6943 324.07 83.467 324.07 83.203C324.07 82.8143 324.103 82.488 324.169 82.224C324.242 81.96 324.378 81.729 324.576 81.531C324.73 81.377 324.91 81.2633 325.115 81.19C325.32 81.1167 325.54 81.08 325.775 81.08C326.01 81.08 326.233 81.1167 326.446 81.19C326.659 81.2633 326.838 81.377 326.985 81.531C327.183 81.729 327.315 81.96 327.381 82.224C327.454 82.488 327.491 82.8143 327.491 83.203C327.491 83.467 327.476 83.6943 327.447 83.885C327.418 84.0757 327.363 84.2553 327.282 84.424C327.187 84.6 327.044 84.7613 326.853 84.908C326.956 84.9813 327.044 85.0583 327.117 85.139C327.19 85.2123 327.256 85.3003 327.315 85.403C327.41 85.5717 327.473 85.7623 327.502 85.975C327.531 86.1877 327.546 86.459 327.546 86.789ZM326.38 86.723C326.38 86.393 326.369 86.1473 326.347 85.986C326.332 85.8173 326.285 85.6817 326.204 85.579C326.101 85.4543 325.962 85.392 325.786 85.392C325.603 85.392 325.46 85.4543 325.357 85.579C325.276 85.6817 325.225 85.8173 325.203 85.986C325.188 86.1473 325.181 86.393 325.181 86.723C325.181 87.031 325.188 87.273 325.203 87.449C325.225 87.6177 325.276 87.7533 325.357 87.856C325.46 87.9807 325.603 88.043 325.786 88.043C325.962 88.043 326.101 87.9807 326.204 87.856C326.285 87.7533 326.332 87.6177 326.347 87.449C326.369 87.273 326.38 87.031 326.38 86.723ZM326.325 83.269C326.325 82.9317 326.31 82.697 326.281 82.565C326.252 82.433 326.204 82.3303 326.138 82.257C326.05 82.169 325.933 82.125 325.786 82.125C325.632 82.125 325.511 82.169 325.423 82.257C325.357 82.3303 325.309 82.433 325.28 82.565C325.251 82.697 325.236 82.9317 325.236 83.269C325.236 83.6063 325.251 83.841 325.28 83.973C325.317 84.105 325.368 84.2077 325.434 84.281C325.522 84.369 325.639 84.413 325.786 84.413C325.933 84.413 326.05 84.369 326.138 84.281C326.204 84.2077 326.252 84.105 326.281 83.973C326.31 83.841 326.325 83.6063 326.325 83.269Z" fill="black"/>
<path d="M0.526921 139V138.01L2.48492 134.204C2.57292 134.035 2.64625 133.834 2.70492 133.599C2.77092 133.357 2.80392 133.093 2.80392 132.807C2.80392 132.58 2.74892 132.411 2.63892 132.301C2.53625 132.184 2.40425 132.125 2.24292 132.125C2.08159 132.125 1.94225 132.18 1.82492 132.29C1.71492 132.4 1.65992 132.569 1.65992 132.796V133.302H0.493921V132.84C0.493921 132.525 0.534254 132.268 0.614921 132.07C0.702921 131.865 0.823921 131.689 0.977921 131.542C1.13192 131.395 1.32259 131.282 1.54992 131.201C1.77725 131.12 2.00825 131.08 2.24292 131.08C2.47759 131.08 2.69759 131.113 2.90292 131.179C3.10825 131.245 3.29159 131.351 3.45292 131.498C3.60692 131.645 3.73159 131.828 3.82692 132.048C3.92225 132.268 3.96992 132.536 3.96992 132.851C3.96992 133.137 3.92959 133.434 3.84892 133.742C3.76825 134.05 3.66559 134.325 3.54092 134.567L1.76992 137.955H3.96992V139H0.526921ZM8.81396 137.328C8.81396 137.643 8.76996 137.904 8.68196 138.109C8.59396 138.307 8.47296 138.479 8.31896 138.626C8.16496 138.773 7.97796 138.886 7.75796 138.967C7.54529 139.048 7.31796 139.088 7.07596 139.088C6.83396 139.088 6.60296 139.048 6.38296 138.967C6.16296 138.886 5.97596 138.773 5.82196 138.626C5.66796 138.479 5.54696 138.307 5.45896 138.109C5.37096 137.904 5.32696 137.643 5.32696 137.328V132.84C5.32696 132.525 5.37096 132.268 5.45896 132.07C5.54696 131.865 5.66796 131.689 5.82196 131.542C5.97596 131.395 6.16296 131.282 6.38296 131.201C6.60296 131.12 6.83396 131.08 7.07596 131.08C7.31796 131.08 7.54529 131.12 7.75796 131.201C7.97796 131.282 8.16496 131.395 8.31896 131.542C8.47296 131.689 8.59396 131.865 8.68196 132.07C8.76996 132.268 8.81396 132.525 8.81396 132.84V137.328ZM7.64796 132.796C7.64796 132.569 7.59296 132.4 7.48296 132.29C7.37296 132.18 7.23729 132.125 7.07596 132.125C6.91463 132.125 6.77529 132.18 6.65796 132.29C6.54796 132.4 6.49296 132.569 6.49296 132.796V137.372C6.49296 137.599 6.54796 137.768 6.65796 137.878C6.77529 137.988 6.91463 138.043 7.07596 138.043C7.23729 138.043 7.37296 137.988 7.48296 137.878C7.59296 137.768 7.64796 137.599 7.64796 137.372V132.796ZM11.667 139V132.532L10.49 133.434V132.114L11.667 131.168H12.833V139H11.667ZM18.183 137.779V139H17.017V137.779H14.839V136.734L16.852 131.168H17.985L16.038 136.734H17.017V135.337H18.183V136.734H18.722V137.779H18.183Z" fill="black"/>
<path d="M21.5269 89V88.01L23.4849 84.204C23.5729 84.0353 23.6463 83.8337 23.7049 83.599C23.7709 83.357 23.8039 83.093 23.8039 82.807C23.8039 82.5797 23.7489 82.411 23.6389 82.301C23.5363 82.1837 23.4043 82.125 23.2429 82.125C23.0816 82.125 22.9423 82.18 22.8249 82.29C22.7149 82.4 22.6599 82.5687 22.6599 82.796V83.302H21.4939V82.84C21.4939 82.5247 21.5343 82.268 21.6149 82.07C21.7029 81.8647 21.8239 81.6887 21.9779 81.542C22.1319 81.3953 22.3226 81.2817 22.5499 81.201C22.7773 81.1203 23.0083 81.08 23.2429 81.08C23.4776 81.08 23.6976 81.113 23.9029 81.179C24.1083 81.245 24.2916 81.3513 24.4529 81.498C24.6069 81.6447 24.7316 81.828 24.8269 82.048C24.9223 82.268 24.9699 82.5357 24.9699 82.851C24.9699 83.137 24.9296 83.434 24.8489 83.742C24.7683 84.05 24.6656 84.325 24.5409 84.567L22.7699 87.955H24.9699V89H21.5269ZM29.814 87.328C29.814 87.6433 29.77 87.9037 29.682 88.109C29.594 88.307 29.473 88.4793 29.319 88.626C29.165 88.7727 28.978 88.8863 28.758 88.967C28.5453 89.0477 28.318 89.088 28.076 89.088C27.834 89.088 27.603 89.0477 27.383 88.967C27.163 88.8863 26.976 88.7727 26.822 88.626C26.668 88.4793 26.547 88.307 26.459 88.109C26.371 87.9037 26.327 87.6433 26.327 87.328V82.84C26.327 82.5247 26.371 82.268 26.459 82.07C26.547 81.8647 26.668 81.6887 26.822 81.542C26.976 81.3953 27.163 81.2817 27.383 81.201C27.603 81.1203 27.834 81.08 28.076 81.08C28.318 81.08 28.5453 81.1203 28.758 81.201C28.978 81.2817 29.165 81.3953 29.319 81.542C29.473 81.6887 29.594 81.8647 29.682 82.07C29.77 82.268 29.814 82.5247 29.814 82.84V87.328ZM28.648 82.796C28.648 82.5687 28.593 82.4 28.483 82.29C28.373 82.18 28.2373 82.125 28.076 82.125C27.9146 82.125 27.7753 82.18 27.658 82.29C27.548 82.4 27.493 82.5687 27.493 82.796V87.372C27.493 87.5993 27.548 87.768 27.658 87.878C27.7753 87.988 27.9146 88.043 28.076 88.043C28.2373 88.043 28.373 87.988 28.483 87.878C28.593 87.768 28.648 87.5993 28.648 87.372V82.796ZM32.667 89V82.532L31.49 83.434V82.114L32.667 81.168H33.833V89H32.667ZM39.546 86.789C39.546 87.0017 39.5387 87.196 39.524 87.372C39.5167 87.548 39.4947 87.7093 39.458 87.856C39.4214 88.0027 39.37 88.1383 39.304 88.263C39.238 88.3877 39.1464 88.5087 39.029 88.626C38.8824 88.7727 38.6954 88.8863 38.468 88.967C38.248 89.0477 38.0207 89.088 37.786 89.088C37.544 89.088 37.313 89.0477 37.093 88.967C36.873 88.8863 36.686 88.7727 36.532 88.626C36.4147 88.5087 36.323 88.3877 36.257 88.263C36.191 88.1383 36.1397 88.0027 36.103 87.856C36.0664 87.7093 36.0407 87.548 36.026 87.372C36.0187 87.196 36.015 87.0017 36.015 86.789C36.015 86.459 36.0297 86.1877 36.059 85.975C36.0884 85.7623 36.1507 85.5717 36.246 85.403C36.3047 85.3003 36.3707 85.2123 36.444 85.139C36.5174 85.0583 36.6054 84.9813 36.708 84.908C36.5174 84.7613 36.3744 84.6 36.279 84.424C36.1984 84.2553 36.1434 84.0757 36.114 83.885C36.0847 83.6943 36.07 83.467 36.07 83.203C36.07 82.8143 36.103 82.488 36.169 82.224C36.2424 81.96 36.378 81.729 36.576 81.531C36.73 81.377 36.9097 81.2633 37.115 81.19C37.3204 81.1167 37.5404 81.08 37.775 81.08C38.0097 81.08 38.2334 81.1167 38.446 81.19C38.6587 81.2633 38.8384 81.377 38.985 81.531C39.183 81.729 39.315 81.96 39.381 82.224C39.4544 82.488 39.491 82.8143 39.491 83.203C39.491 83.467 39.4764 83.6943 39.447 83.885C39.4177 84.0757 39.3627 84.2553 39.282 84.424C39.1867 84.6 39.0437 84.7613 38.853 84.908C38.9557 84.9813 39.0437 85.0583 39.117 85.139C39.1904 85.2123 39.2564 85.3003 39.315 85.403C39.4104 85.5717 39.4727 85.7623 39.502 85.975C39.5314 86.1877 39.546 86.459 39.546 86.789ZM38.38 86.723C38.38 86.393 38.369 86.1473 38.347 85.986C38.3324 85.8173 38.2847 85.6817 38.204 85.579C38.1014 85.4543 37.962 85.392 37.786 85.392C37.6027 85.392 37.4597 85.4543 37.357 85.579C37.2764 85.6817 37.225 85.8173 37.203 85.986C37.1884 86.1473 37.181 86.393 37.181 86.723C37.181 87.031 37.1884 87.273 37.203 87.449C37.225 87.6177 37.2764 87.7533 37.357 87.856C37.4597 87.9807 37.6027 88.043 37.786 88.043C37.962 88.043 38.1014 87.9807 38.204 87.856C38.2847 87.7533 38.3324 87.6177 38.347 87.449C38.369 87.273 38.38 87.031 38.38 86.723ZM38.325 83.269C38.325 82.9317 38.3104 82.697 38.281 82.565C38.2517 82.433 38.204 82.3303 38.138 82.257C38.05 82.169 37.9327 82.125 37.786 82.125C37.632 82.125 37.511 82.169 37.423 82.257C37.357 82.3303 37.3094 82.433 37.28 82.565C37.2507 82.697 37.236 82.9317 37.236 83.269C37.236 83.6063 37.2507 83.841 37.28 83.973C37.3167 84.105 37.368 84.2077 37.434 84.281C37.522 84.369 37.6394 84.413 37.786 84.413C37.9327 84.413 38.05 84.369 38.138 84.281C38.204 84.2077 38.2517 84.105 38.281 83.973C38.3104 83.841 38.325 83.6063 38.325 83.269Z" fill="black"/>
<path d="M74.5269 42V41.01L76.4849 37.204C76.5729 37.0353 76.6463 36.8337 76.7049 36.599C76.7709 36.357 76.8039 36.093 76.8039 35.807C76.8039 35.5797 76.7489 35.411 76.6389 35.301C76.5363 35.1837 76.4043 35.125 76.2429 35.125C76.0816 35.125 75.9423 35.18 75.8249 35.29C75.7149 35.4 75.6599 35.5687 75.6599 35.796V36.302H74.4939V35.84C74.4939 35.5247 74.5343 35.268 74.6149 35.07C74.7029 34.8647 74.8239 34.6887 74.9779 34.542C75.1319 34.3953 75.3226 34.2817 75.5499 34.201C75.7773 34.1203 76.0083 34.08 76.2429 34.08C76.4776 34.08 76.6976 34.113 76.9029 34.179C77.1083 34.245 77.2916 34.3513 77.4529 34.498C77.6069 34.6447 77.7316 34.828 77.8269 35.048C77.9223 35.268 77.9699 35.5357 77.9699 35.851C77.9699 36.137 77.9296 36.434 77.8489 36.742C77.7683 37.05 77.6656 37.325 77.5409 37.567L75.7699 40.955H77.9699V42H74.5269ZM82.814 40.328C82.814 40.6433 82.77 40.9037 82.682 41.109C82.594 41.307 82.473 41.4793 82.319 41.626C82.165 41.7727 81.978 41.8863 81.758 41.967C81.5453 42.0477 81.318 42.088 81.076 42.088C80.834 42.088 80.603 42.0477 80.383 41.967C80.163 41.8863 79.976 41.7727 79.822 41.626C79.668 41.4793 79.547 41.307 79.459 41.109C79.371 40.9037 79.327 40.6433 79.327 40.328V35.84C79.327 35.5247 79.371 35.268 79.459 35.07C79.547 34.8647 79.668 34.6887 79.822 34.542C79.976 34.3953 80.163 34.2817 80.383 34.201C80.603 34.1203 80.834 34.08 81.076 34.08C81.318 34.08 81.5453 34.1203 81.758 34.201C81.978 34.2817 82.165 34.3953 82.319 34.542C82.473 34.6887 82.594 34.8647 82.682 35.07C82.77 35.268 82.814 35.5247 82.814 35.84V40.328ZM81.648 35.796C81.648 35.5687 81.593 35.4 81.483 35.29C81.373 35.18 81.2373 35.125 81.076 35.125C80.9146 35.125 80.7753 35.18 80.658 35.29C80.548 35.4 80.493 35.5687 80.493 35.796V40.372C80.493 40.5993 80.548 40.768 80.658 40.878C80.7753 40.988 80.9146 41.043 81.076 41.043C81.2373 41.043 81.373 40.988 81.483 40.878C81.593 40.768 81.648 40.5993 81.648 40.372V35.796ZM84.237 42V41.01L86.195 37.204C86.283 37.0353 86.3563 36.8337 86.415 36.599C86.481 36.357 86.514 36.093 86.514 35.807C86.514 35.5797 86.459 35.411 86.349 35.301C86.2463 35.1837 86.1143 35.125 85.953 35.125C85.7917 35.125 85.6523 35.18 85.535 35.29C85.425 35.4 85.37 35.5687 85.37 35.796V36.302H84.204V35.84C84.204 35.5247 84.2443 35.268 84.325 35.07C84.413 34.8647 84.534 34.6887 84.688 34.542C84.842 34.3953 85.0327 34.2817 85.26 34.201C85.4873 34.1203 85.7183 34.08 85.953 34.08C86.1877 34.08 86.4077 34.113 86.613 34.179C86.8183 34.245 87.0017 34.3513 87.163 34.498C87.317 34.6447 87.4417 34.828 87.537 35.048C87.6323 35.268 87.68 35.5357 87.68 35.851C87.68 36.137 87.6397 36.434 87.559 36.742C87.4783 37.05 87.3757 37.325 87.251 37.567L85.48 40.955H87.68V42H84.237ZM89.092 42V41.01L91.05 37.204C91.138 37.0353 91.2114 36.8337 91.27 36.599C91.336 36.357 91.369 36.093 91.369 35.807C91.369 35.5797 91.314 35.411 91.204 35.301C91.1014 35.1837 90.9694 35.125 90.808 35.125C90.6467 35.125 90.5074 35.18 90.39 35.29C90.28 35.4 90.225 35.5687 90.225 35.796V36.302H89.059V35.84C89.059 35.5247 89.0994 35.268 89.18 35.07C89.268 34.8647 89.389 34.6887 89.543 34.542C89.697 34.3953 89.8877 34.2817 90.115 34.201C90.3424 34.1203 90.5734 34.08 90.808 34.08C91.0427 34.08 91.2627 34.113 91.468 34.179C91.6734 34.245 91.8567 34.3513 92.018 34.498C92.172 34.6447 92.2967 34.828 92.392 35.048C92.4874 35.268 92.535 35.5357 92.535 35.851C92.535 36.137 92.4947 36.434 92.414 36.742C92.3334 37.05 92.2307 37.325 92.106 37.567L90.335 40.955H92.535V42H89.092Z" fill="black"/>
<path d="M330.957 139V132.532L329.78 133.434V132.114L330.957 131.168H332.123V139H330.957ZM337.836 133.544C337.836 133.896 337.807 134.23 337.748 134.545C337.697 134.853 337.62 135.135 337.517 135.392L336.142 139H334.932L336.219 135.832C336.153 135.883 336.076 135.92 335.988 135.942C335.907 135.957 335.827 135.964 335.746 135.964C335.533 135.964 335.339 135.927 335.163 135.854C334.987 135.773 334.833 135.649 334.701 135.48C334.628 135.392 334.565 135.297 334.514 135.194C334.47 135.084 334.43 134.956 334.393 134.809C334.364 134.662 334.342 134.486 334.327 134.281C334.312 134.076 334.305 133.83 334.305 133.544C334.305 133.28 334.312 133.056 334.327 132.873C334.342 132.682 334.364 132.517 334.393 132.378C334.43 132.239 334.47 132.118 334.514 132.015C334.565 131.905 334.624 131.802 334.69 131.707C334.844 131.487 335.042 131.329 335.284 131.234C335.533 131.131 335.797 131.08 336.076 131.08C336.391 131.08 336.663 131.135 336.89 131.245C337.125 131.355 337.312 131.509 337.451 131.707C337.524 131.817 337.587 131.931 337.638 132.048C337.689 132.165 337.73 132.297 337.759 132.444C337.788 132.583 337.807 132.745 337.814 132.928C337.829 133.104 337.836 133.309 337.836 133.544ZM336.67 133.566C336.67 133.258 336.659 133.001 336.637 132.796C336.622 132.583 336.575 132.426 336.494 132.323C336.391 132.191 336.252 132.125 336.076 132.125C335.995 132.125 335.915 132.143 335.834 132.18C335.761 132.209 335.698 132.257 335.647 132.323C335.566 132.426 335.515 132.583 335.493 132.796C335.478 133.001 335.471 133.258 335.471 133.566C335.471 133.874 335.478 134.134 335.493 134.347C335.515 134.552 335.566 134.706 335.647 134.809C335.698 134.875 335.761 134.926 335.834 134.963C335.915 134.992 335.995 135.007 336.076 135.007C336.252 135.007 336.391 134.941 336.494 134.809C336.575 134.706 336.622 134.552 336.637 134.347C336.659 134.134 336.67 133.874 336.67 133.566ZM342.691 136.789C342.691 137.002 342.684 137.196 342.669 137.372C342.662 137.548 342.64 137.709 342.603 137.856C342.566 138.003 342.515 138.138 342.449 138.263C342.383 138.388 342.291 138.509 342.174 138.626C342.027 138.773 341.84 138.886 341.613 138.967C341.393 139.048 341.166 139.088 340.931 139.088C340.689 139.088 340.458 139.048 340.238 138.967C340.018 138.886 339.831 138.773 339.677 138.626C339.56 138.509 339.468 138.388 339.402 138.263C339.336 138.138 339.285 138.003 339.248 137.856C339.211 137.709 339.186 137.548 339.171 137.372C339.164 137.196 339.16 137.002 339.16 136.789C339.16 136.459 339.175 136.188 339.204 135.975C339.233 135.762 339.296 135.572 339.391 135.403C339.45 135.3 339.516 135.212 339.589 135.139C339.662 135.058 339.75 134.981 339.853 134.908C339.662 134.761 339.519 134.6 339.424 134.424C339.343 134.255 339.288 134.076 339.259 133.885C339.23 133.694 339.215 133.467 339.215 133.203C339.215 132.814 339.248 132.488 339.314 132.224C339.387 131.96 339.523 131.729 339.721 131.531C339.875 131.377 340.055 131.263 340.26 131.19C340.465 131.117 340.685 131.08 340.92 131.08C341.155 131.08 341.378 131.117 341.591 131.19C341.804 131.263 341.983 131.377 342.13 131.531C342.328 131.729 342.46 131.96 342.526 132.224C342.599 132.488 342.636 132.814 342.636 133.203C342.636 133.467 342.621 133.694 342.592 133.885C342.563 134.076 342.508 134.255 342.427 134.424C342.332 134.6 342.189 134.761 341.998 134.908C342.101 134.981 342.189 135.058 342.262 135.139C342.335 135.212 342.401 135.3 342.46 135.403C342.555 135.572 342.618 135.762 342.647 135.975C342.676 136.188 342.691 136.459 342.691 136.789ZM341.525 136.723C341.525 136.393 341.514 136.147 341.492 135.986C341.477 135.817 341.43 135.682 341.349 135.579C341.246 135.454 341.107 135.392 340.931 135.392C340.748 135.392 340.605 135.454 340.502 135.579C340.421 135.682 340.37 135.817 340.348 135.986C340.333 136.147 340.326 136.393 340.326 136.723C340.326 137.031 340.333 137.273 340.348 137.449C340.37 137.618 340.421 137.753 340.502 137.856C340.605 137.981 340.748 138.043 340.931 138.043C341.107 138.043 341.246 137.981 341.349 137.856C341.43 137.753 341.477 137.618 341.492 137.449C341.514 137.273 341.525 137.031 341.525 136.723ZM341.47 133.269C341.47 132.932 341.455 132.697 341.426 132.565C341.397 132.433 341.349 132.33 341.283 132.257C341.195 132.169 341.078 132.125 340.931 132.125C340.777 132.125 340.656 132.169 340.568 132.257C340.502 132.33 340.454 132.433 340.425 132.565C340.396 132.697 340.381 132.932 340.381 133.269C340.381 133.606 340.396 133.841 340.425 133.973C340.462 134.105 340.513 134.208 340.579 134.281C340.667 134.369 340.784 134.413 340.931 134.413C341.078 134.413 341.195 134.369 341.283 134.281C341.349 134.208 341.397 134.105 341.426 133.973C341.455 133.841 341.47 133.606 341.47 133.269ZM344.092 139V138.01L346.05 134.204C346.138 134.035 346.211 133.834 346.27 133.599C346.336 133.357 346.369 133.093 346.369 132.807C346.369 132.58 346.314 132.411 346.204 132.301C346.101 132.184 345.969 132.125 345.808 132.125C345.647 132.125 345.507 132.18 345.39 132.29C345.28 132.4 345.225 132.569 345.225 132.796V133.302H344.059V132.84C344.059 132.525 344.099 132.268 344.18 132.07C344.268 131.865 344.389 131.689 344.543 131.542C344.697 131.395 344.888 131.282 345.115 131.201C345.342 131.12 345.573 131.08 345.808 131.08C346.043 131.08 346.263 131.113 346.468 131.179C346.673 131.245 346.857 131.351 347.018 131.498C347.172 131.645 347.297 131.828 347.392 132.048C347.487 132.268 347.535 132.536 347.535 132.851C347.535 133.137 347.495 133.434 347.414 133.742C347.333 134.05 347.231 134.325 347.106 134.567L345.335 137.955H347.535V139H344.092Z" fill="black"/>
<path d="M0.526922 194V193.01L2.48492 189.204C2.57292 189.035 2.64626 188.834 2.70492 188.599C2.77092 188.357 2.80392 188.093 2.80392 187.807C2.80392 187.58 2.74892 187.411 2.63892 187.301C2.53626 187.184 2.40426 187.125 2.24292 187.125C2.08159 187.125 1.94226 187.18 1.82492 187.29C1.71492 187.4 1.65992 187.569 1.65992 187.796V188.302H0.493922V187.84C0.493922 187.525 0.534255 187.268 0.614922 187.07C0.702922 186.865 0.823922 186.689 0.977922 186.542C1.13192 186.395 1.32259 186.282 1.54992 186.201C1.77726 186.12 2.00826 186.08 2.24292 186.08C2.47759 186.08 2.69759 186.113 2.90292 186.179C3.10826 186.245 3.29159 186.351 3.45292 186.498C3.60692 186.645 3.73159 186.828 3.82692 187.048C3.92226 187.268 3.96992 187.536 3.96992 187.851C3.96992 188.137 3.92959 188.434 3.84892 188.742C3.76826 189.05 3.66559 189.325 3.54092 189.567L1.76992 192.955H3.96992V194H0.526922ZM8.81396 192.328C8.81396 192.643 8.76996 192.904 8.68196 193.109C8.59396 193.307 8.47296 193.479 8.31896 193.626C8.16496 193.773 7.97796 193.886 7.75796 193.967C7.54529 194.048 7.31796 194.088 7.07596 194.088C6.83396 194.088 6.60296 194.048 6.38296 193.967C6.16296 193.886 5.97596 193.773 5.82196 193.626C5.66796 193.479 5.54696 193.307 5.45896 193.109C5.37096 192.904 5.32696 192.643 5.32696 192.328V187.84C5.32696 187.525 5.37096 187.268 5.45896 187.07C5.54696 186.865 5.66796 186.689 5.82196 186.542C5.97596 186.395 6.16296 186.282 6.38296 186.201C6.60296 186.12 6.83396 186.08 7.07596 186.08C7.31796 186.08 7.54529 186.12 7.75796 186.201C7.97796 186.282 8.16496 186.395 8.31896 186.542C8.47296 186.689 8.59396 186.865 8.68196 187.07C8.76996 187.268 8.81396 187.525 8.81396 187.84V192.328ZM7.64796 187.796C7.64796 187.569 7.59296 187.4 7.48296 187.29C7.37296 187.18 7.23729 187.125 7.07596 187.125C6.91463 187.125 6.77529 187.18 6.65796 187.29C6.54796 187.4 6.49296 187.569 6.49296 187.796V192.372C6.49296 192.599 6.54796 192.768 6.65796 192.878C6.77529 192.988 6.91463 193.043 7.07596 193.043C7.23729 193.043 7.37296 192.988 7.48296 192.878C7.59296 192.768 7.64796 192.599 7.64796 192.372V187.796ZM11.667 194V187.532L10.49 188.434V187.114L11.667 186.168H12.833V194H11.667ZM18.524 192.328C18.524 192.643 18.48 192.904 18.392 193.109C18.304 193.307 18.183 193.479 18.029 193.626C17.875 193.773 17.688 193.886 17.468 193.967C17.2554 194.048 17.028 194.088 16.786 194.088C16.544 194.088 16.313 194.048 16.093 193.967C15.873 193.886 15.686 193.773 15.532 193.626C15.378 193.479 15.257 193.307 15.169 193.109C15.081 192.904 15.037 192.643 15.037 192.328V187.84C15.037 187.525 15.081 187.268 15.169 187.07C15.257 186.865 15.378 186.689 15.532 186.542C15.686 186.395 15.873 186.282 16.093 186.201C16.313 186.12 16.544 186.08 16.786 186.08C17.028 186.08 17.2554 186.12 17.468 186.201C17.688 186.282 17.875 186.395 18.029 186.542C18.183 186.689 18.304 186.865 18.392 187.07C18.48 187.268 18.524 187.525 18.524 187.84V192.328ZM17.358 187.796C17.358 187.569 17.303 187.4 17.193 187.29C17.083 187.18 16.9474 187.125 16.786 187.125C16.6247 187.125 16.4854 187.18 16.368 187.29C16.258 187.4 16.203 187.569 16.203 187.796V192.372C16.203 192.599 16.258 192.768 16.368 192.878C16.4854 192.988 16.6247 193.043 16.786 193.043C16.9474 193.043 17.083 192.988 17.193 192.878C17.303 192.768 17.358 192.599 17.358 192.372V187.796Z" fill="black"/>
<path d="M330.957 193V186.532L329.78 187.434V186.114L330.957 185.168H332.123V193H330.957ZM337.836 187.544C337.836 187.896 337.807 188.23 337.748 188.545C337.697 188.853 337.62 189.135 337.517 189.392L336.142 193H334.932L336.219 189.832C336.153 189.883 336.076 189.92 335.988 189.942C335.907 189.957 335.827 189.964 335.746 189.964C335.533 189.964 335.339 189.927 335.163 189.854C334.987 189.773 334.833 189.649 334.701 189.48C334.628 189.392 334.565 189.297 334.514 189.194C334.47 189.084 334.43 188.956 334.393 188.809C334.364 188.662 334.342 188.486 334.327 188.281C334.312 188.076 334.305 187.83 334.305 187.544C334.305 187.28 334.312 187.056 334.327 186.873C334.342 186.682 334.364 186.517 334.393 186.378C334.43 186.239 334.47 186.118 334.514 186.015C334.565 185.905 334.624 185.802 334.69 185.707C334.844 185.487 335.042 185.329 335.284 185.234C335.533 185.131 335.797 185.08 336.076 185.08C336.391 185.08 336.663 185.135 336.89 185.245C337.125 185.355 337.312 185.509 337.451 185.707C337.524 185.817 337.587 185.931 337.638 186.048C337.689 186.165 337.73 186.297 337.759 186.444C337.788 186.583 337.807 186.745 337.814 186.928C337.829 187.104 337.836 187.309 337.836 187.544ZM336.67 187.566C336.67 187.258 336.659 187.001 336.637 186.796C336.622 186.583 336.575 186.426 336.494 186.323C336.391 186.191 336.252 186.125 336.076 186.125C335.995 186.125 335.915 186.143 335.834 186.18C335.761 186.209 335.698 186.257 335.647 186.323C335.566 186.426 335.515 186.583 335.493 186.796C335.478 187.001 335.471 187.258 335.471 187.566C335.471 187.874 335.478 188.134 335.493 188.347C335.515 188.552 335.566 188.706 335.647 188.809C335.698 188.875 335.761 188.926 335.834 188.963C335.915 188.992 335.995 189.007 336.076 189.007C336.252 189.007 336.391 188.941 336.494 188.809C336.575 188.706 336.622 188.552 336.637 188.347C336.659 188.134 336.67 187.874 336.67 187.566ZM342.691 190.789C342.691 191.002 342.684 191.196 342.669 191.372C342.662 191.548 342.64 191.709 342.603 191.856C342.566 192.003 342.515 192.138 342.449 192.263C342.383 192.388 342.291 192.509 342.174 192.626C342.027 192.773 341.84 192.886 341.613 192.967C341.393 193.048 341.166 193.088 340.931 193.088C340.689 193.088 340.458 193.048 340.238 192.967C340.018 192.886 339.831 192.773 339.677 192.626C339.56 192.509 339.468 192.388 339.402 192.263C339.336 192.138 339.285 192.003 339.248 191.856C339.211 191.709 339.186 191.548 339.171 191.372C339.164 191.196 339.16 191.002 339.16 190.789C339.16 190.459 339.175 190.188 339.204 189.975C339.233 189.762 339.296 189.572 339.391 189.403C339.45 189.3 339.516 189.212 339.589 189.139C339.662 189.058 339.75 188.981 339.853 188.908C339.662 188.761 339.519 188.6 339.424 188.424C339.343 188.255 339.288 188.076 339.259 187.885C339.23 187.694 339.215 187.467 339.215 187.203C339.215 186.814 339.248 186.488 339.314 186.224C339.387 185.96 339.523 185.729 339.721 185.531C339.875 185.377 340.055 185.263 340.26 185.19C340.465 185.117 340.685 185.08 340.92 185.08C341.155 185.08 341.378 185.117 341.591 185.19C341.804 185.263 341.983 185.377 342.13 185.531C342.328 185.729 342.46 185.96 342.526 186.224C342.599 186.488 342.636 186.814 342.636 187.203C342.636 187.467 342.621 187.694 342.592 187.885C342.563 188.076 342.508 188.255 342.427 188.424C342.332 188.6 342.189 188.761 341.998 188.908C342.101 188.981 342.189 189.058 342.262 189.139C342.335 189.212 342.401 189.3 342.46 189.403C342.555 189.572 342.618 189.762 342.647 189.975C342.676 190.188 342.691 190.459 342.691 190.789ZM341.525 190.723C341.525 190.393 341.514 190.147 341.492 189.986C341.477 189.817 341.43 189.682 341.349 189.579C341.246 189.454 341.107 189.392 340.931 189.392C340.748 189.392 340.605 189.454 340.502 189.579C340.421 189.682 340.37 189.817 340.348 189.986C340.333 190.147 340.326 190.393 340.326 190.723C340.326 191.031 340.333 191.273 340.348 191.449C340.37 191.618 340.421 191.753 340.502 191.856C340.605 191.981 340.748 192.043 340.931 192.043C341.107 192.043 341.246 191.981 341.349 191.856C341.43 191.753 341.477 191.618 341.492 191.449C341.514 191.273 341.525 191.031 341.525 190.723ZM341.47 187.269C341.47 186.932 341.455 186.697 341.426 186.565C341.397 186.433 341.349 186.33 341.283 186.257C341.195 186.169 341.078 186.125 340.931 186.125C340.777 186.125 340.656 186.169 340.568 186.257C340.502 186.33 340.454 186.433 340.425 186.565C340.396 186.697 340.381 186.932 340.381 187.269C340.381 187.606 340.396 187.841 340.425 187.973C340.462 188.105 340.513 188.208 340.579 188.281C340.667 188.369 340.784 188.413 340.931 188.413C341.078 188.413 341.195 188.369 341.283 188.281C341.349 188.208 341.397 188.105 341.426 187.973C341.455 187.841 341.47 187.606 341.47 187.269ZM347.546 190.624C347.546 190.888 347.539 191.115 347.524 191.306C347.509 191.489 347.484 191.654 347.447 191.801C347.418 191.94 347.381 192.065 347.337 192.175C347.293 192.278 347.238 192.373 347.172 192.461C347.018 192.681 346.816 192.842 346.567 192.945C346.318 193.04 346.054 193.088 345.775 193.088C345.46 193.088 345.185 193.033 344.95 192.923C344.723 192.813 344.539 192.659 344.4 192.461C344.327 192.351 344.264 192.237 344.213 192.12C344.162 192.003 344.121 191.874 344.092 191.735C344.063 191.588 344.041 191.427 344.026 191.251C344.019 191.068 344.015 190.859 344.015 190.624C344.015 190.272 344.041 189.942 344.092 189.634C344.151 189.319 344.231 189.033 344.334 188.776L345.709 185.168H346.919L345.632 188.336C345.698 188.285 345.775 188.252 345.863 188.237C345.951 188.215 346.035 188.204 346.116 188.204C346.321 188.204 346.512 188.244 346.688 188.325C346.871 188.398 347.025 188.519 347.15 188.688C347.223 188.776 347.282 188.875 347.326 188.985C347.377 189.088 347.418 189.212 347.447 189.359C347.484 189.506 347.509 189.682 347.524 189.887C347.539 190.092 347.546 190.338 347.546 190.624ZM346.38 190.602C346.38 190.294 346.369 190.037 346.347 189.832C346.332 189.619 346.285 189.462 346.204 189.359C346.101 189.227 345.962 189.161 345.786 189.161C345.705 189.161 345.625 189.179 345.544 189.216C345.471 189.245 345.408 189.293 345.357 189.359C345.276 189.462 345.225 189.619 345.203 189.832C345.188 190.037 345.181 190.294 345.181 190.602C345.181 190.91 345.188 191.17 345.203 191.383C345.225 191.588 345.276 191.742 345.357 191.845C345.408 191.911 345.471 191.962 345.544 191.999C345.625 192.028 345.705 192.043 345.786 192.043C345.962 192.043 346.101 191.977 346.204 191.845C346.285 191.742 346.332 191.588 346.347 191.383C346.369 191.17 346.38 190.91 346.38 190.602Z" fill="black"/>
<path d="M21.5269 244V243.01L23.4849 239.204C23.5729 239.035 23.6463 238.834 23.7049 238.599C23.7709 238.357 23.8039 238.093 23.8039 237.807C23.8039 237.58 23.7489 237.411 23.6389 237.301C23.5363 237.184 23.4043 237.125 23.2429 237.125C23.0816 237.125 22.9423 237.18 22.8249 237.29C22.7149 237.4 22.6599 237.569 22.6599 237.796V238.302H21.4939V237.84C21.4939 237.525 21.5343 237.268 21.6149 237.07C21.7029 236.865 21.8239 236.689 21.9779 236.542C22.1319 236.395 22.3226 236.282 22.5499 236.201C22.7773 236.12 23.0083 236.08 23.2429 236.08C23.4776 236.08 23.6976 236.113 23.9029 236.179C24.1083 236.245 24.2916 236.351 24.4529 236.498C24.6069 236.645 24.7316 236.828 24.8269 237.048C24.9223 237.268 24.9699 237.536 24.9699 237.851C24.9699 238.137 24.9296 238.434 24.8489 238.742C24.7683 239.05 24.6656 239.325 24.5409 239.567L22.7699 242.955H24.9699V244H21.5269ZM29.814 242.328C29.814 242.643 29.77 242.904 29.682 243.109C29.594 243.307 29.473 243.479 29.319 243.626C29.165 243.773 28.978 243.886 28.758 243.967C28.5453 244.048 28.318 244.088 28.076 244.088C27.834 244.088 27.603 244.048 27.383 243.967C27.163 243.886 26.976 243.773 26.822 243.626C26.668 243.479 26.547 243.307 26.459 243.109C26.371 242.904 26.327 242.643 26.327 242.328V237.84C26.327 237.525 26.371 237.268 26.459 237.07C26.547 236.865 26.668 236.689 26.822 236.542C26.976 236.395 27.163 236.282 27.383 236.201C27.603 236.12 27.834 236.08 28.076 236.08C28.318 236.08 28.5453 236.12 28.758 236.201C28.978 236.282 29.165 236.395 29.319 236.542C29.473 236.689 29.594 236.865 29.682 237.07C29.77 237.268 29.814 237.525 29.814 237.84V242.328ZM28.648 237.796C28.648 237.569 28.593 237.4 28.483 237.29C28.373 237.18 28.2373 237.125 28.076 237.125C27.9146 237.125 27.7753 237.18 27.658 237.29C27.548 237.4 27.493 237.569 27.493 237.796V242.372C27.493 242.599 27.548 242.768 27.658 242.878C27.7753 242.988 27.9146 243.043 28.076 243.043C28.2373 243.043 28.373 242.988 28.483 242.878C28.593 242.768 28.648 242.599 28.648 242.372V237.796ZM34.669 242.328C34.669 242.643 34.625 242.904 34.537 243.109C34.449 243.307 34.328 243.479 34.174 243.626C34.02 243.773 33.833 243.886 33.613 243.967C33.4003 244.048 33.173 244.088 32.931 244.088C32.689 244.088 32.458 244.048 32.238 243.967C32.018 243.886 31.831 243.773 31.677 243.626C31.523 243.479 31.402 243.307 31.314 243.109C31.226 242.904 31.182 242.643 31.182 242.328V237.84C31.182 237.525 31.226 237.268 31.314 237.07C31.402 236.865 31.523 236.689 31.677 236.542C31.831 236.395 32.018 236.282 32.238 236.201C32.458 236.12 32.689 236.08 32.931 236.08C33.173 236.08 33.4003 236.12 33.613 236.201C33.833 236.282 34.02 236.395 34.174 236.542C34.328 236.689 34.449 236.865 34.537 237.07C34.625 237.268 34.669 237.525 34.669 237.84V242.328ZM33.503 237.796C33.503 237.569 33.448 237.4 33.338 237.29C33.228 237.18 33.0923 237.125 32.931 237.125C32.7697 237.125 32.6303 237.18 32.513 237.29C32.403 237.4 32.348 237.569 32.348 237.796V242.372C32.348 242.599 32.403 242.768 32.513 242.878C32.6303 242.988 32.7697 243.043 32.931 243.043C33.0923 243.043 33.228 242.988 33.338 242.878C33.448 242.768 33.503 242.599 33.503 242.372V237.796ZM39.546 241.624C39.546 241.888 39.5387 242.115 39.524 242.306C39.5094 242.489 39.4837 242.654 39.447 242.801C39.4177 242.94 39.381 243.065 39.337 243.175C39.293 243.278 39.238 243.373 39.172 243.461C39.018 243.681 38.8164 243.842 38.567 243.945C38.3177 244.04 38.0537 244.088 37.775 244.088C37.4597 244.088 37.1847 244.033 36.95 243.923C36.7227 243.813 36.5394 243.659 36.4 243.461C36.3267 243.351 36.2644 243.237 36.213 243.12C36.1617 243.003 36.1214 242.874 36.092 242.735C36.0627 242.588 36.0407 242.427 36.026 242.251C36.0187 242.068 36.015 241.859 36.015 241.624C36.015 241.272 36.0407 240.942 36.092 240.634C36.1507 240.319 36.2314 240.033 36.334 239.776L37.709 236.168H38.919L37.632 239.336C37.698 239.285 37.775 239.252 37.863 239.237C37.951 239.215 38.0354 239.204 38.116 239.204C38.3214 239.204 38.512 239.244 38.688 239.325C38.8714 239.398 39.0254 239.519 39.15 239.688C39.2234 239.776 39.282 239.875 39.326 239.985C39.3774 240.088 39.4177 240.212 39.447 240.359C39.4837 240.506 39.5094 240.682 39.524 240.887C39.5387 241.092 39.546 241.338 39.546 241.624ZM38.38 241.602C38.38 241.294 38.369 241.037 38.347 240.832C38.3324 240.619 38.2847 240.462 38.204 240.359C38.1014 240.227 37.962 240.161 37.786 240.161C37.7054 240.161 37.6247 240.179 37.544 240.216C37.4707 240.245 37.4084 240.293 37.357 240.359C37.2764 240.462 37.225 240.619 37.203 240.832C37.1884 241.037 37.181 241.294 37.181 241.602C37.181 241.91 37.1884 242.17 37.203 242.383C37.225 242.588 37.2764 242.742 37.357 242.845C37.4084 242.911 37.4707 242.962 37.544 242.999C37.6247 243.028 37.7054 243.043 37.786 243.043C37.962 243.043 38.1014 242.977 38.204 242.845C38.2847 242.742 38.3324 242.588 38.347 242.383C38.369 242.17 38.38 241.91 38.38 241.602Z" fill="black"/>
<path d="M310.957 244V237.532L309.78 238.434V237.114L310.957 236.168H312.123V244H310.957ZM317.836 238.544C317.836 238.896 317.807 239.23 317.748 239.545C317.697 239.853 317.62 240.135 317.517 240.392L316.142 244H314.932L316.219 240.832C316.153 240.883 316.076 240.92 315.988 240.942C315.907 240.957 315.827 240.964 315.746 240.964C315.533 240.964 315.339 240.927 315.163 240.854C314.987 240.773 314.833 240.649 314.701 240.48C314.628 240.392 314.565 240.297 314.514 240.194C314.47 240.084 314.43 239.956 314.393 239.809C314.364 239.662 314.342 239.486 314.327 239.281C314.312 239.076 314.305 238.83 314.305 238.544C314.305 238.28 314.312 238.056 314.327 237.873C314.342 237.682 314.364 237.517 314.393 237.378C314.43 237.239 314.47 237.118 314.514 237.015C314.565 236.905 314.624 236.802 314.69 236.707C314.844 236.487 315.042 236.329 315.284 236.234C315.533 236.131 315.797 236.08 316.076 236.08C316.391 236.08 316.663 236.135 316.89 236.245C317.125 236.355 317.312 236.509 317.451 236.707C317.524 236.817 317.587 236.931 317.638 237.048C317.689 237.165 317.73 237.297 317.759 237.444C317.788 237.583 317.807 237.745 317.814 237.928C317.829 238.104 317.836 238.309 317.836 238.544ZM316.67 238.566C316.67 238.258 316.659 238.001 316.637 237.796C316.622 237.583 316.575 237.426 316.494 237.323C316.391 237.191 316.252 237.125 316.076 237.125C315.995 237.125 315.915 237.143 315.834 237.18C315.761 237.209 315.698 237.257 315.647 237.323C315.566 237.426 315.515 237.583 315.493 237.796C315.478 238.001 315.471 238.258 315.471 238.566C315.471 238.874 315.478 239.134 315.493 239.347C315.515 239.552 315.566 239.706 315.647 239.809C315.698 239.875 315.761 239.926 315.834 239.963C315.915 239.992 315.995 240.007 316.076 240.007C316.252 240.007 316.391 239.941 316.494 239.809C316.575 239.706 316.622 239.552 316.637 239.347C316.659 239.134 316.67 238.874 316.67 238.566ZM322.691 238.544C322.691 238.896 322.662 239.23 322.603 239.545C322.552 239.853 322.475 240.135 322.372 240.392L320.997 244H319.787L321.074 240.832C321.008 240.883 320.931 240.92 320.843 240.942C320.762 240.957 320.682 240.964 320.601 240.964C320.388 240.964 320.194 240.927 320.018 240.854C319.842 240.773 319.688 240.649 319.556 240.48C319.483 240.392 319.42 240.297 319.369 240.194C319.325 240.084 319.285 239.956 319.248 239.809C319.219 239.662 319.197 239.486 319.182 239.281C319.167 239.076 319.16 238.83 319.16 238.544C319.16 238.28 319.167 238.056 319.182 237.873C319.197 237.682 319.219 237.517 319.248 237.378C319.285 237.239 319.325 237.118 319.369 237.015C319.42 236.905 319.479 236.802 319.545 236.707C319.699 236.487 319.897 236.329 320.139 236.234C320.388 236.131 320.652 236.08 320.931 236.08C321.246 236.08 321.518 236.135 321.745 236.245C321.98 236.355 322.167 236.509 322.306 236.707C322.379 236.817 322.442 236.931 322.493 237.048C322.544 237.165 322.585 237.297 322.614 237.444C322.643 237.583 322.662 237.745 322.669 237.928C322.684 238.104 322.691 238.309 322.691 238.544ZM321.525 238.566C321.525 238.258 321.514 238.001 321.492 237.796C321.477 237.583 321.43 237.426 321.349 237.323C321.246 237.191 321.107 237.125 320.931 237.125C320.85 237.125 320.77 237.143 320.689 237.18C320.616 237.209 320.553 237.257 320.502 237.323C320.421 237.426 320.37 237.583 320.348 237.796C320.333 238.001 320.326 238.258 320.326 238.566C320.326 238.874 320.333 239.134 320.348 239.347C320.37 239.552 320.421 239.706 320.502 239.809C320.553 239.875 320.616 239.926 320.689 239.963C320.77 239.992 320.85 240.007 320.931 240.007C321.107 240.007 321.246 239.941 321.349 239.809C321.43 239.706 321.477 239.552 321.492 239.347C321.514 239.134 321.525 238.874 321.525 238.566ZM327.524 242.328C327.524 242.643 327.48 242.904 327.392 243.109C327.304 243.307 327.183 243.479 327.029 243.626C326.875 243.773 326.688 243.886 326.468 243.967C326.255 244.048 326.028 244.088 325.786 244.088C325.544 244.088 325.313 244.048 325.093 243.967C324.873 243.886 324.686 243.773 324.532 243.626C324.378 243.479 324.257 243.307 324.169 243.109C324.081 242.904 324.037 242.643 324.037 242.328V237.84C324.037 237.525 324.081 237.268 324.169 237.07C324.257 236.865 324.378 236.689 324.532 236.542C324.686 236.395 324.873 236.282 325.093 236.201C325.313 236.12 325.544 236.08 325.786 236.08C326.028 236.08 326.255 236.12 326.468 236.201C326.688 236.282 326.875 236.395 327.029 236.542C327.183 236.689 327.304 236.865 327.392 237.07C327.48 237.268 327.524 237.525 327.524 237.84V242.328ZM326.358 237.796C326.358 237.569 326.303 237.4 326.193 237.29C326.083 237.18 325.947 237.125 325.786 237.125C325.625 237.125 325.485 237.18 325.368 237.29C325.258 237.4 325.203 237.569 325.203 237.796V242.372C325.203 242.599 325.258 242.768 325.368 242.878C325.485 242.988 325.625 243.043 325.786 243.043C325.947 243.043 326.083 242.988 326.193 242.878C326.303 242.768 326.358 242.599 326.358 242.372V237.796Z" fill="black"/>
<path d="M74.5269 295V294.01L76.4849 290.204C76.5729 290.035 76.6463 289.834 76.7049 289.599C76.7709 289.357 76.8039 289.093 76.8039 288.807C76.8039 288.58 76.7489 288.411 76.6389 288.301C76.5363 288.184 76.4043 288.125 76.2429 288.125C76.0816 288.125 75.9423 288.18 75.8249 288.29C75.7149 288.4 75.6599 288.569 75.6599 288.796V289.302H74.4939V288.84C74.4939 288.525 74.5343 288.268 74.6149 288.07C74.7029 287.865 74.8239 287.689 74.9779 287.542C75.1319 287.395 75.3226 287.282 75.5499 287.201C75.7773 287.12 76.0083 287.08 76.2429 287.08C76.4776 287.08 76.6976 287.113 76.9029 287.179C77.1083 287.245 77.2916 287.351 77.4529 287.498C77.6069 287.645 77.7316 287.828 77.8269 288.048C77.9223 288.268 77.9699 288.536 77.9699 288.851C77.9699 289.137 77.9296 289.434 77.8489 289.742C77.7683 290.05 77.6656 290.325 77.5409 290.567L75.7699 293.955H77.9699V295H74.5269ZM82.814 293.328C82.814 293.643 82.77 293.904 82.682 294.109C82.594 294.307 82.473 294.479 82.319 294.626C82.165 294.773 81.978 294.886 81.758 294.967C81.5453 295.048 81.318 295.088 81.076 295.088C80.834 295.088 80.603 295.048 80.383 294.967C80.163 294.886 79.976 294.773 79.822 294.626C79.668 294.479 79.547 294.307 79.459 294.109C79.371 293.904 79.327 293.643 79.327 293.328V288.84C79.327 288.525 79.371 288.268 79.459 288.07C79.547 287.865 79.668 287.689 79.822 287.542C79.976 287.395 80.163 287.282 80.383 287.201C80.603 287.12 80.834 287.08 81.076 287.08C81.318 287.08 81.5453 287.12 81.758 287.201C81.978 287.282 82.165 287.395 82.319 287.542C82.473 287.689 82.594 287.865 82.682 288.07C82.77 288.268 82.814 288.525 82.814 288.84V293.328ZM81.648 288.796C81.648 288.569 81.593 288.4 81.483 288.29C81.373 288.18 81.2373 288.125 81.076 288.125C80.9146 288.125 80.7753 288.18 80.658 288.29C80.548 288.4 80.493 288.569 80.493 288.796V293.372C80.493 293.599 80.548 293.768 80.658 293.878C80.7753 293.988 80.9146 294.043 81.076 294.043C81.2373 294.043 81.373 293.988 81.483 293.878C81.593 293.768 81.648 293.599 81.648 293.372V288.796ZM87.669 293.328C87.669 293.643 87.625 293.904 87.537 294.109C87.449 294.307 87.328 294.479 87.174 294.626C87.02 294.773 86.833 294.886 86.613 294.967C86.4003 295.048 86.173 295.088 85.931 295.088C85.689 295.088 85.458 295.048 85.238 294.967C85.018 294.886 84.831 294.773 84.677 294.626C84.523 294.479 84.402 294.307 84.314 294.109C84.226 293.904 84.182 293.643 84.182 293.328V288.84C84.182 288.525 84.226 288.268 84.314 288.07C84.402 287.865 84.523 287.689 84.677 287.542C84.831 287.395 85.018 287.282 85.238 287.201C85.458 287.12 85.689 287.08 85.931 287.08C86.173 287.08 86.4003 287.12 86.613 287.201C86.833 287.282 87.02 287.395 87.174 287.542C87.328 287.689 87.449 287.865 87.537 288.07C87.625 288.268 87.669 288.525 87.669 288.84V293.328ZM86.503 288.796C86.503 288.569 86.448 288.4 86.338 288.29C86.228 288.18 86.0923 288.125 85.931 288.125C85.7697 288.125 85.6303 288.18 85.513 288.29C85.403 288.4 85.348 288.569 85.348 288.796V293.372C85.348 293.599 85.403 293.768 85.513 293.878C85.6303 293.988 85.7697 294.043 85.931 294.043C86.0923 294.043 86.228 293.988 86.338 293.878C86.448 293.768 86.503 293.599 86.503 293.372V288.796ZM89.092 295V294.01L91.05 290.204C91.138 290.035 91.2114 289.834 91.27 289.599C91.336 289.357 91.369 289.093 91.369 288.807C91.369 288.58 91.314 288.411 91.204 288.301C91.1014 288.184 90.9694 288.125 90.808 288.125C90.6467 288.125 90.5074 288.18 90.39 288.29C90.28 288.4 90.225 288.569 90.225 288.796V289.302H89.059V288.84C89.059 288.525 89.0994 288.268 89.18 288.07C89.268 287.865 89.389 287.689 89.543 287.542C89.697 287.395 89.8877 287.282 90.115 287.201C90.3424 287.12 90.5734 287.08 90.808 287.08C91.0427 287.08 91.2627 287.113 91.468 287.179C91.6734 287.245 91.8567 287.351 92.018 287.498C92.172 287.645 92.2967 287.828 92.392 288.048C92.4874 288.268 92.535 288.536 92.535 288.851C92.535 289.137 92.4947 289.434 92.414 289.742C92.3334 290.05 92.2307 290.325 92.106 290.567L90.335 293.955H92.535V295H89.092Z" fill="black"/>
<path d="M258.957 295V288.532L257.78 289.434V288.114L258.957 287.168H260.123V295H258.957ZM265.836 289.544C265.836 289.896 265.807 290.23 265.748 290.545C265.697 290.853 265.62 291.135 265.517 291.392L264.142 295H262.932L264.219 291.832C264.153 291.883 264.076 291.92 263.988 291.942C263.907 291.957 263.827 291.964 263.746 291.964C263.533 291.964 263.339 291.927 263.163 291.854C262.987 291.773 262.833 291.649 262.701 291.48C262.628 291.392 262.565 291.297 262.514 291.194C262.47 291.084 262.43 290.956 262.393 290.809C262.364 290.662 262.342 290.486 262.327 290.281C262.312 290.076 262.305 289.83 262.305 289.544C262.305 289.28 262.312 289.056 262.327 288.873C262.342 288.682 262.364 288.517 262.393 288.378C262.43 288.239 262.47 288.118 262.514 288.015C262.565 287.905 262.624 287.802 262.69 287.707C262.844 287.487 263.042 287.329 263.284 287.234C263.533 287.131 263.797 287.08 264.076 287.08C264.391 287.08 264.663 287.135 264.89 287.245C265.125 287.355 265.312 287.509 265.451 287.707C265.524 287.817 265.587 287.931 265.638 288.048C265.689 288.165 265.73 288.297 265.759 288.444C265.788 288.583 265.807 288.745 265.814 288.928C265.829 289.104 265.836 289.309 265.836 289.544ZM264.67 289.566C264.67 289.258 264.659 289.001 264.637 288.796C264.622 288.583 264.575 288.426 264.494 288.323C264.391 288.191 264.252 288.125 264.076 288.125C263.995 288.125 263.915 288.143 263.834 288.18C263.761 288.209 263.698 288.257 263.647 288.323C263.566 288.426 263.515 288.583 263.493 288.796C263.478 289.001 263.471 289.258 263.471 289.566C263.471 289.874 263.478 290.134 263.493 290.347C263.515 290.552 263.566 290.706 263.647 290.809C263.698 290.875 263.761 290.926 263.834 290.963C263.915 290.992 263.995 291.007 264.076 291.007C264.252 291.007 264.391 290.941 264.494 290.809C264.575 290.706 264.622 290.552 264.637 290.347C264.659 290.134 264.67 289.874 264.67 289.566ZM270.691 289.544C270.691 289.896 270.662 290.23 270.603 290.545C270.552 290.853 270.475 291.135 270.372 291.392L268.997 295H267.787L269.074 291.832C269.008 291.883 268.931 291.92 268.843 291.942C268.762 291.957 268.682 291.964 268.601 291.964C268.388 291.964 268.194 291.927 268.018 291.854C267.842 291.773 267.688 291.649 267.556 291.48C267.483 291.392 267.42 291.297 267.369 291.194C267.325 291.084 267.285 290.956 267.248 290.809C267.219 290.662 267.197 290.486 267.182 290.281C267.167 290.076 267.16 289.83 267.16 289.544C267.16 289.28 267.167 289.056 267.182 288.873C267.197 288.682 267.219 288.517 267.248 288.378C267.285 288.239 267.325 288.118 267.369 288.015C267.42 287.905 267.479 287.802 267.545 287.707C267.699 287.487 267.897 287.329 268.139 287.234C268.388 287.131 268.652 287.08 268.931 287.08C269.246 287.08 269.518 287.135 269.745 287.245C269.98 287.355 270.167 287.509 270.306 287.707C270.379 287.817 270.442 287.931 270.493 288.048C270.544 288.165 270.585 288.297 270.614 288.444C270.643 288.583 270.662 288.745 270.669 288.928C270.684 289.104 270.691 289.309 270.691 289.544ZM269.525 289.566C269.525 289.258 269.514 289.001 269.492 288.796C269.477 288.583 269.43 288.426 269.349 288.323C269.246 288.191 269.107 288.125 268.931 288.125C268.85 288.125 268.77 288.143 268.689 288.18C268.616 288.209 268.553 288.257 268.502 288.323C268.421 288.426 268.37 288.583 268.348 288.796C268.333 289.001 268.326 289.258 268.326 289.566C268.326 289.874 268.333 290.134 268.348 290.347C268.37 290.552 268.421 290.706 268.502 290.809C268.553 290.875 268.616 290.926 268.689 290.963C268.77 290.992 268.85 291.007 268.931 291.007C269.107 291.007 269.246 290.941 269.349 290.809C269.43 290.706 269.477 290.552 269.492 290.347C269.514 290.134 269.525 289.874 269.525 289.566ZM275.183 293.779V295H274.017V293.779H271.839V292.734L273.852 287.168H274.985L273.038 292.734H274.017V291.337H275.183V292.734H275.722V293.779H275.183Z" fill="black"/>
<path d="M168.957 327V320.532L167.78 321.434V320.114L168.957 319.168H170.123V327H168.957ZM175.836 321.544C175.836 321.896 175.807 322.23 175.748 322.545C175.697 322.853 175.62 323.135 175.517 323.392L174.142 327H172.932L174.219 323.832C174.153 323.883 174.076 323.92 173.988 323.942C173.907 323.957 173.827 323.964 173.746 323.964C173.533 323.964 173.339 323.927 173.163 323.854C172.987 323.773 172.833 323.649 172.701 323.48C172.628 323.392 172.565 323.297 172.514 323.194C172.47 323.084 172.43 322.956 172.393 322.809C172.364 322.662 172.342 322.486 172.327 322.281C172.312 322.076 172.305 321.83 172.305 321.544C172.305 321.28 172.312 321.056 172.327 320.873C172.342 320.682 172.364 320.517 172.393 320.378C172.43 320.239 172.47 320.118 172.514 320.015C172.565 319.905 172.624 319.802 172.69 319.707C172.844 319.487 173.042 319.329 173.284 319.234C173.533 319.131 173.797 319.08 174.076 319.08C174.391 319.08 174.663 319.135 174.89 319.245C175.125 319.355 175.312 319.509 175.451 319.707C175.524 319.817 175.587 319.931 175.638 320.048C175.689 320.165 175.73 320.297 175.759 320.444C175.788 320.583 175.807 320.745 175.814 320.928C175.829 321.104 175.836 321.309 175.836 321.544ZM174.67 321.566C174.67 321.258 174.659 321.001 174.637 320.796C174.622 320.583 174.575 320.426 174.494 320.323C174.391 320.191 174.252 320.125 174.076 320.125C173.995 320.125 173.915 320.143 173.834 320.18C173.761 320.209 173.698 320.257 173.647 320.323C173.566 320.426 173.515 320.583 173.493 320.796C173.478 321.001 173.471 321.258 173.471 321.566C173.471 321.874 173.478 322.134 173.493 322.347C173.515 322.552 173.566 322.706 173.647 322.809C173.698 322.875 173.761 322.926 173.834 322.963C173.915 322.992 173.995 323.007 174.076 323.007C174.252 323.007 174.391 322.941 174.494 322.809C174.575 322.706 174.622 322.552 174.637 322.347C174.659 322.134 174.67 321.874 174.67 321.566ZM180.691 321.544C180.691 321.896 180.662 322.23 180.603 322.545C180.552 322.853 180.475 323.135 180.372 323.392L178.997 327H177.787L179.074 323.832C179.008 323.883 178.931 323.92 178.843 323.942C178.762 323.957 178.682 323.964 178.601 323.964C178.388 323.964 178.194 323.927 178.018 323.854C177.842 323.773 177.688 323.649 177.556 323.48C177.483 323.392 177.42 323.297 177.369 323.194C177.325 323.084 177.285 322.956 177.248 322.809C177.219 322.662 177.197 322.486 177.182 322.281C177.167 322.076 177.16 321.83 177.16 321.544C177.16 321.28 177.167 321.056 177.182 320.873C177.197 320.682 177.219 320.517 177.248 320.378C177.285 320.239 177.325 320.118 177.369 320.015C177.42 319.905 177.479 319.802 177.545 319.707C177.699 319.487 177.897 319.329 178.139 319.234C178.388 319.131 178.652 319.08 178.931 319.08C179.246 319.08 179.518 319.135 179.745 319.245C179.98 319.355 180.167 319.509 180.306 319.707C180.379 319.817 180.442 319.931 180.493 320.048C180.544 320.165 180.585 320.297 180.614 320.444C180.643 320.583 180.662 320.745 180.669 320.928C180.684 321.104 180.691 321.309 180.691 321.544ZM179.525 321.566C179.525 321.258 179.514 321.001 179.492 320.796C179.477 320.583 179.43 320.426 179.349 320.323C179.246 320.191 179.107 320.125 178.931 320.125C178.85 320.125 178.77 320.143 178.689 320.18C178.616 320.209 178.553 320.257 178.502 320.323C178.421 320.426 178.37 320.583 178.348 320.796C178.333 321.001 178.326 321.258 178.326 321.566C178.326 321.874 178.333 322.134 178.348 322.347C178.37 322.552 178.421 322.706 178.502 322.809C178.553 322.875 178.616 322.926 178.689 322.963C178.77 322.992 178.85 323.007 178.931 323.007C179.107 323.007 179.246 322.941 179.349 322.809C179.43 322.706 179.477 322.552 179.492 322.347C179.514 322.134 179.525 321.874 179.525 321.566ZM185.546 324.789C185.546 325.002 185.539 325.196 185.524 325.372C185.517 325.548 185.495 325.709 185.458 325.856C185.421 326.003 185.37 326.138 185.304 326.263C185.238 326.388 185.146 326.509 185.029 326.626C184.882 326.773 184.695 326.886 184.468 326.967C184.248 327.048 184.021 327.088 183.786 327.088C183.544 327.088 183.313 327.048 183.093 326.967C182.873 326.886 182.686 326.773 182.532 326.626C182.415 326.509 182.323 326.388 182.257 326.263C182.191 326.138 182.14 326.003 182.103 325.856C182.066 325.709 182.041 325.548 182.026 325.372C182.019 325.196 182.015 325.002 182.015 324.789C182.015 324.459 182.03 324.188 182.059 323.975C182.088 323.762 182.151 323.572 182.246 323.403C182.305 323.3 182.371 323.212 182.444 323.139C182.517 323.058 182.605 322.981 182.708 322.908C182.517 322.761 182.374 322.6 182.279 322.424C182.198 322.255 182.143 322.076 182.114 321.885C182.085 321.694 182.07 321.467 182.07 321.203C182.07 320.814 182.103 320.488 182.169 320.224C182.242 319.96 182.378 319.729 182.576 319.531C182.73 319.377 182.91 319.263 183.115 319.19C183.32 319.117 183.54 319.08 183.775 319.08C184.01 319.08 184.233 319.117 184.446 319.19C184.659 319.263 184.838 319.377 184.985 319.531C185.183 319.729 185.315 319.96 185.381 320.224C185.454 320.488 185.491 320.814 185.491 321.203C185.491 321.467 185.476 321.694 185.447 321.885C185.418 322.076 185.363 322.255 185.282 322.424C185.187 322.6 185.044 322.761 184.853 322.908C184.956 322.981 185.044 323.058 185.117 323.139C185.19 323.212 185.256 323.3 185.315 323.403C185.41 323.572 185.473 323.762 185.502 323.975C185.531 324.188 185.546 324.459 185.546 324.789ZM184.38 324.723C184.38 324.393 184.369 324.147 184.347 323.986C184.332 323.817 184.285 323.682 184.204 323.579C184.101 323.454 183.962 323.392 183.786 323.392C183.603 323.392 183.46 323.454 183.357 323.579C183.276 323.682 183.225 323.817 183.203 323.986C183.188 324.147 183.181 324.393 183.181 324.723C183.181 325.031 183.188 325.273 183.203 325.449C183.225 325.618 183.276 325.753 183.357 325.856C183.46 325.981 183.603 326.043 183.786 326.043C183.962 326.043 184.101 325.981 184.204 325.856C184.285 325.753 184.332 325.618 184.347 325.449C184.369 325.273 184.38 325.031 184.38 324.723ZM184.325 321.269C184.325 320.932 184.31 320.697 184.281 320.565C184.252 320.433 184.204 320.33 184.138 320.257C184.05 320.169 183.933 320.125 183.786 320.125C183.632 320.125 183.511 320.169 183.423 320.257C183.357 320.33 183.309 320.433 183.28 320.565C183.251 320.697 183.236 320.932 183.236 321.269C183.236 321.606 183.251 321.841 183.28 321.973C183.317 322.105 183.368 322.208 183.434 322.281C183.522 322.369 183.639 322.413 183.786 322.413C183.933 322.413 184.05 322.369 184.138 322.281C184.204 322.208 184.252 322.105 184.281 321.973C184.31 321.841 184.325 321.606 184.325 321.269Z" fill="black"/>
</svg>
